<svg width="524" height="272" viewBox="0 0 524 272" fill="none" xmlns="http://www.w3.org/2000/svg">
  <g filter="url(#filter0_d_1_160)">
    <path
      d="M511.948 61.0567C511.948 63.6902 509.282 66.2677 505.395 66.2677C501.508 66.2677 498.842 63.6902 498.842 61.0567C498.842 58.4232 501.508 55.8457 505.395 55.8457C509.282 55.8457 511.948 58.4232 511.948 61.0567Z"
      stroke="#13D5FF" stroke-width="3" />
  </g>
  <g filter="url(#filter1_d_1_160)">
    <path
      d="M202.575 17.6403C202.822 18.4492 202.611 19.5001 201.709 20.6114C200.814 21.7141 199.334 22.7303 197.454 23.3051C195.574 23.88 193.778 23.8653 192.42 23.4514C191.051 23.0344 190.288 22.2811 190.041 21.4723C189.794 20.6634 190.005 19.6125 190.906 18.5012C191.801 17.3985 193.281 16.3823 195.162 15.8075C197.042 15.2326 198.837 15.2474 200.196 15.6612C201.565 16.0782 202.327 16.8315 202.575 17.6403Z"
      stroke="#13D5FF" stroke-width="3" />
  </g>
  <g filter="url(#filter2_d_1_160)">
    <path
      d="M108.62 111.594C108.867 112.403 108.657 113.454 107.755 114.565C106.86 115.668 105.38 116.684 103.499 117.259C101.619 117.834 99.8238 117.819 98.4654 117.405C97.0963 116.988 96.3338 116.235 96.0865 115.426C95.8392 114.617 96.0502 113.566 96.9519 112.455C97.8467 111.352 99.327 110.336 101.207 109.761C103.087 109.186 104.883 109.201 106.241 109.615C107.61 110.032 108.373 110.785 108.62 111.594Z"
      stroke="#13D5FF" stroke-width="3" />
  </g>
  <g filter="url(#filter3_d_1_160)">
    <path
      d="M301.528 167.079C301.775 167.888 301.564 168.939 300.662 170.05C299.768 171.153 298.287 172.169 296.407 172.744C294.527 173.319 292.732 173.304 291.373 172.89C290.004 172.473 289.242 171.72 288.994 170.911C288.747 170.102 288.958 169.052 289.86 167.94C290.754 166.837 292.235 165.821 294.115 165.246C295.995 164.672 297.791 164.686 299.149 165.1C300.518 165.517 301.281 166.27 301.528 167.079Z"
      stroke="#13D5FF" stroke-width="3" />
  </g>
  <path opacity="0.25" d="M302.354 167.545C333.922 156.404 417.579 140.806 499.657 167.545"
    stroke="url(#paint0_linear_1_160)" stroke-width="3" />
  <path opacity="0.25" d="M204.74 16.7642C236.308 5.62278 319.965 -9.97515 402.043 16.7642"
    stroke="url(#paint1_linear_1_160)" stroke-width="3" />
  <path opacity="0.25" d="M288.33 166.203C256.761 155.062 173.105 139.464 91.0269 166.203"
    stroke="url(#paint2_linear_1_160)" stroke-width="3" />
  <path opacity="0.25" d="M296.382 173.625C329.857 173.953 413.803 187.908 481.786 241.107"
    stroke="url(#paint3_linear_1_160)" stroke-width="3" />
  <path opacity="0.25" d="M198.768 22.844C232.243 23.1715 316.189 37.1265 384.172 90.3255"
    stroke="url(#paint4_linear_1_160)" stroke-width="3" />
  <path opacity="0.25" d="M288.198 172.261C255.289 178.396 175.041 206.716 117.329 270.912"
    stroke="url(#paint5_linear_1_160)" stroke-width="3" />
  <path opacity="0.25" d="M190.584 21.4795C172.818 18.872 132.7 24.023 114.361 65.4871"
    stroke="url(#paint6_linear_1_160)" stroke-width="3" />
  <g filter="url(#filter4_d_1_160)">
    <path
      d="M364.278 32.2992C364.35 33.121 363.932 34.0917 362.816 34.9851C361.71 35.8706 360.049 36.5528 358.087 36.7244C356.126 36.896 354.371 36.5127 353.128 35.8327C351.874 35.1465 351.294 34.2633 351.222 33.4415C351.15 32.6197 351.568 31.649 352.684 30.7556C353.79 29.8701 355.451 29.1879 357.413 29.0163C359.374 28.8447 361.129 29.228 362.372 29.908C363.626 30.5941 364.206 31.4774 364.278 32.2992Z"
      stroke="#5EE671" stroke-width="3" />
  </g>
  <path opacity="0.25" d="M100.722 118.771C86.6293 133.535 57.101 171.251 51.7322 204"
    stroke="url(#paint7_linear_1_160)" stroke-width="3" />
  <path opacity="0.25" d="M500.694 66.4253C486.601 81.1894 457.073 118.905 451.704 151.655"
    stroke="url(#paint8_linear_1_160)" stroke-width="3" />
  <path opacity="0.25" d="M97.7798 112.492C77.411 111.186 29.5386 112.809 1.00003 129.748"
    stroke="url(#paint9_linear_1_160)" stroke-width="3" />
  <path opacity="0.25" d="M497.754 60.1463C477.385 58.8406 429.513 60.4638 400.974 77.4021"
    stroke="url(#paint10_linear_1_160)" stroke-width="3" />
  <path opacity="0.25" d="M108.105 117.429C111.503 139.929 124.045 190.22 147.029 211.382"
    stroke="url(#paint11_linear_1_160)" stroke-width="3" />
  <path opacity="0.25" d="M508.076 65.083C511.474 87.5832 524.016 137.874 547 159.037"
    stroke="url(#paint12_linear_1_160)" stroke-width="3" />
  <path d="M356 39C332.114 56.0667 286.486 105.56 295.058 167" stroke="#13D5FF" stroke-width="3"
    stroke-dasharray="2 5" />
  <path d="M350.371 36.897C302.499 41.8184 187.294 63.4724 109.447 110.718" stroke="#13D5FF" stroke-width="3"
    stroke-dasharray="2 5" />
  <path d="M350.371 30.1861C327.106 22.804 265.007 10.1874 202.729 18.7774" stroke="#13D5FF" stroke-width="3"
    stroke-dasharray="2 5" />
  <path d="M367.148 31.854C392.426 28.8482 455.733 33.1649 495.999 53.0033" stroke="#13D5FF" stroke-width="3"
    stroke-dasharray="2 5" />
  <defs>
    <filter id="filter0_d_1_160" x="487.342" y="45.3457" width="36.1064" height="33.4219" filterUnits="userSpaceOnUse"
      color-interpolation-filters="sRGB">
      <feFlood flood-opacity="0" result="BackgroundImageFix" />
      <feColorMatrix in="SourceAlpha" type="matrix" values="0 0 0 0 0 0 0 0 0 0 0 0 0 0 0 0 0 0 127 0"
        result="hardAlpha" />
      <feOffset dy="1" />
      <feGaussianBlur stdDeviation="5" />
      <feColorMatrix type="matrix" values="0 0 0 0 0 0 0 0 0 0.82 0 0 0 0 1 0 0 0 1 0" />
      <feBlend mode="normal" in2="BackgroundImageFix" result="effect1_dropShadow_1_160" />
      <feBlend mode="normal" in="SourceGraphic" in2="effect1_dropShadow_1_160" result="shape" />
    </filter>
    <filter id="filter1_d_1_160" x="178.444" y="4.86182" width="35.7283" height="31.3889" filterUnits="userSpaceOnUse"
      color-interpolation-filters="sRGB">
      <feFlood flood-opacity="0" result="BackgroundImageFix" />
      <feColorMatrix in="SourceAlpha" type="matrix" values="0 0 0 0 0 0 0 0 0 0 0 0 0 0 0 0 0 0 127 0"
        result="hardAlpha" />
      <feOffset dy="1" />
      <feGaussianBlur stdDeviation="5" />
      <feColorMatrix type="matrix" values="0 0 0 0 0 0 0 0 0 0.82 0 0 0 0 1 0 0 0 1 0" />
      <feBlend mode="normal" in2="BackgroundImageFix" result="effect1_dropShadow_1_160" />
      <feBlend mode="normal" in="SourceGraphic" in2="effect1_dropShadow_1_160" result="shape" />
    </filter>
    <filter id="filter2_d_1_160" x="84.4893" y="98.8154" width="35.7283" height="31.3889" filterUnits="userSpaceOnUse"
      color-interpolation-filters="sRGB">
      <feFlood flood-opacity="0" result="BackgroundImageFix" />
      <feColorMatrix in="SourceAlpha" type="matrix" values="0 0 0 0 0 0 0 0 0 0 0 0 0 0 0 0 0 0 127 0"
        result="hardAlpha" />
      <feOffset dy="1" />
      <feGaussianBlur stdDeviation="5" />
      <feColorMatrix type="matrix" values="0 0 0 0 0 0 0 0 0 0.82 0 0 0 0 1 0 0 0 1 0" />
      <feBlend mode="normal" in2="BackgroundImageFix" result="effect1_dropShadow_1_160" />
      <feBlend mode="normal" in="SourceGraphic" in2="effect1_dropShadow_1_160" result="shape" />
    </filter>
    <filter id="filter3_d_1_160" x="277.397" y="154.301" width="35.7283" height="31.3889" filterUnits="userSpaceOnUse"
      color-interpolation-filters="sRGB">
      <feFlood flood-opacity="0" result="BackgroundImageFix" />
      <feColorMatrix in="SourceAlpha" type="matrix" values="0 0 0 0 0 0 0 0 0 0 0 0 0 0 0 0 0 0 127 0"
        result="hardAlpha" />
      <feOffset dy="1" />
      <feGaussianBlur stdDeviation="5" />
      <feColorMatrix type="matrix" values="0 0 0 0 0 0 0 0 0 0.82 0 0 0 0 1 0 0 0 1 0" />
      <feBlend mode="normal" in2="BackgroundImageFix" result="effect1_dropShadow_1_160" />
      <feBlend mode="normal" in="SourceGraphic" in2="effect1_dropShadow_1_160" result="shape" />
    </filter>
    <filter id="filter4_d_1_160" x="339.714" y="18.4756" width="36.0728" height="30.7896" filterUnits="userSpaceOnUse"
      color-interpolation-filters="sRGB">
      <feFlood flood-opacity="0" result="BackgroundImageFix" />
      <feColorMatrix in="SourceAlpha" type="matrix" values="0 0 0 0 0 0 0 0 0 0 0 0 0 0 0 0 0 0 127 0"
        result="hardAlpha" />
      <feOffset dy="1" />
      <feGaussianBlur stdDeviation="5" />
      <feColorMatrix type="matrix" values="0 0 0 0 0 0 0 0 0 0.82 0 0 0 0 1 0 0 0 1 0" />
      <feBlend mode="normal" in2="BackgroundImageFix" result="effect1_dropShadow_1_160" />
      <feBlend mode="normal" in="SourceGraphic" in2="effect1_dropShadow_1_160" result="shape" />
    </filter>
    <linearGradient id="paint0_linear_1_160" x1="302.354" y1="167.545" x2="396.156" y2="111.817"
      gradientUnits="userSpaceOnUse">
      <stop stop-color="#13D5FF" />
      <stop offset="1" stop-color="#13D5FF" stop-opacity="0" />
    </linearGradient>
    <linearGradient id="paint1_linear_1_160" x1="204.74" y1="16.7641" x2="298.542" y2="-38.9642"
      gradientUnits="userSpaceOnUse">
      <stop stop-color="#13D5FF" />
      <stop offset="1" stop-color="#13D5FF" stop-opacity="0" />
    </linearGradient>
    <linearGradient id="paint2_linear_1_160" x1="288.33" y1="166.203" x2="194.528" y2="110.475"
      gradientUnits="userSpaceOnUse">
      <stop stop-color="#13D5FF" />
      <stop offset="1" stop-color="#13D5FF" stop-opacity="0" />
    </linearGradient>
    <linearGradient id="paint3_linear_1_160" x1="296.382" y1="173.625" x2="403.587" y2="153.34"
      gradientUnits="userSpaceOnUse">
      <stop stop-color="#13D5FF" />
      <stop offset="1" stop-color="#13D5FF" stop-opacity="0" />
    </linearGradient>
    <linearGradient id="paint4_linear_1_160" x1="198.768" y1="22.844" x2="305.973" y2="2.5585"
      gradientUnits="userSpaceOnUse">
      <stop stop-color="#13D5FF" />
      <stop offset="1" stop-color="#13D5FF" stop-opacity="0" />
    </linearGradient>
    <linearGradient id="paint5_linear_1_160" x1="288.198" y1="172.261" x2="179.1" y2="170.899"
      gradientUnits="userSpaceOnUse">
      <stop stop-color="#13D5FF" />
      <stop offset="1" stop-color="#13D5FF" stop-opacity="0" />
    </linearGradient>
    <linearGradient id="paint6_linear_1_160" x1="190.584" y1="21.4795" x2="137.763" y2="35.7873"
      gradientUnits="userSpaceOnUse">
      <stop stop-color="#13D5FF" />
      <stop offset="1" stop-color="#13D5FF" stop-opacity="0" />
    </linearGradient>
    <linearGradient id="paint7_linear_1_160" x1="51.7322" y1="204" x2="83.2233" y2="203.196"
      gradientUnits="userSpaceOnUse">
      <stop stop-color="#13D5FF" stop-opacity="0" />
      <stop offset="1" stop-color="#13D5FF" />
    </linearGradient>
    <linearGradient id="paint8_linear_1_160" x1="451.704" y1="151.655" x2="483.195" y2="150.85"
      gradientUnits="userSpaceOnUse">
      <stop stop-color="#13D5FF" stop-opacity="0" />
      <stop offset="1" stop-color="#13D5FF" />
    </linearGradient>
    <linearGradient id="paint9_linear_1_160" x1="1.0001" y1="129.748" x2="21.8587" y2="153.354"
      gradientUnits="userSpaceOnUse">
      <stop stop-color="#13D5FF" stop-opacity="0" />
      <stop offset="1" stop-color="#13D5FF" />
    </linearGradient>
    <linearGradient id="paint10_linear_1_160" x1="400.974" y1="77.402" x2="421.833" y2="101.008"
      gradientUnits="userSpaceOnUse">
      <stop stop-color="#13D5FF" stop-opacity="0" />
      <stop offset="1" stop-color="#13D5FF" />
    </linearGradient>
    <linearGradient id="paint11_linear_1_160" x1="108.105" y1="211.382" x2="133.133" y2="210.921"
      gradientUnits="userSpaceOnUse">
      <stop stop-color="#13D5FF" />
      <stop offset="1" stop-color="#13D5FF" stop-opacity="0" />
    </linearGradient>
    <linearGradient id="paint12_linear_1_160" x1="508.076" y1="159.037" x2="533.104" y2="158.576"
      gradientUnits="userSpaceOnUse">
      <stop stop-color="#13D5FF" />
      <stop offset="1" stop-color="#13D5FF" stop-opacity="0" />
    </linearGradient>
  </defs>
</svg>