<svg version="1.2" baseProfile="tiny-ps" xmlns="http://www.w3.org/2000/svg" viewBox="0 0 286 37" width="286" height="37">
	<title>image</title>
	<defs>
		<radialGradient id="grd1" gradientUnits="userSpaceOnUse"  cx="65" cy="38" r="12">
			<stop offset="0" stop-color="#000c11"  />
			<stop offset="1" stop-color="#000c11" stop-opacity="0" />
		</radialGradient>
		<radialGradient id="grd2" gradientUnits="userSpaceOnUse"  cx="22" cy="32" r="12">
			<stop offset="0" stop-color="#000c11"  />
			<stop offset="1" stop-color="#000c11" stop-opacity="0" />
		</radialGradient>
		<radialGradient id="grd3" gradientUnits="userSpaceOnUse"  cx="35" cy="38" r="12">
			<stop offset="0" stop-color="#000c11"  />
			<stop offset="1" stop-color="#000c11" stop-opacity="0" />
		</radialGradient>
		<radialGradient id="grd4" gradientUnits="userSpaceOnUse"  cx="35" cy="10" r="12">
			<stop offset="0" stop-color="#000c11"  />
			<stop offset="1" stop-color="#000c11" stop-opacity="0" />
		</radialGradient>
		<radialGradient id="grd5" gradientUnits="userSpaceOnUse"  cx="49" cy="16" r="12">
			<stop offset="0" stop-color="#000c11"  />
			<stop offset="1" stop-color="#000c11" stop-opacity="0" />
		</radialGradient>
		<radialGradient id="grd6" gradientUnits="userSpaceOnUse"  cx="86" cy="4" r="12">
			<stop offset="0" stop-color="#000c11"  />
			<stop offset="1" stop-color="#000c11" stop-opacity="0" />
		</radialGradient>
		<radialGradient id="grd7" gradientUnits="userSpaceOnUse"  cx="62" cy="22" r="12">
			<stop offset="0" stop-color="#000c11"  />
			<stop offset="1" stop-color="#000c11" stop-opacity="0" />
		</radialGradient>
		<radialGradient id="grd8" gradientUnits="userSpaceOnUse"  cx="70" cy="22" r="12">
			<stop offset="0" stop-color="#000c11"  />
			<stop offset="1" stop-color="#000c11" stop-opacity="0" />
		</radialGradient>
		<radialGradient id="grd9" gradientUnits="userSpaceOnUse"  cx="116" cy="26" r="12">
			<stop offset="0" stop-color="#000c11"  />
			<stop offset="1" stop-color="#000c11" stop-opacity="0" />
		</radialGradient>
		<radialGradient id="grd10" gradientUnits="userSpaceOnUse"  cx="84" cy="28" r="12">
			<stop offset="0" stop-color="#000c11"  />
			<stop offset="1" stop-color="#000c11" stop-opacity="0" />
		</radialGradient>
		<radialGradient id="grd11" gradientUnits="userSpaceOnUse"  cx="121" cy="16" r="12">
			<stop offset="0" stop-color="#000c11"  />
			<stop offset="1" stop-color="#000c11" stop-opacity="0" />
		</radialGradient>
		<radialGradient id="grd12" gradientUnits="userSpaceOnUse"  cx="97" cy="34" r="12">
			<stop offset="0" stop-color="#000c11"  />
			<stop offset="1" stop-color="#000c11" stop-opacity="0" />
		</radialGradient>
		<radialGradient id="grd13" gradientUnits="userSpaceOnUse"  cx="105" cy="10" r="12">
			<stop offset="0" stop-color="#000c11"  />
			<stop offset="1" stop-color="#000c11" stop-opacity="0" />
		</radialGradient>
		<radialGradient id="grd14" gradientUnits="userSpaceOnUse"  cx="133" cy="24" r="12">
			<stop offset="0" stop-color="#000c11"  />
			<stop offset="1" stop-color="#000c11" stop-opacity="0" />
		</radialGradient>
		<radialGradient id="grd15" gradientUnits="userSpaceOnUse"  cx="179" cy="28" r="12">
			<stop offset="0" stop-color="#000c11"  />
			<stop offset="1" stop-color="#000c11" stop-opacity="0" />
		</radialGradient>
		<radialGradient id="grd16" gradientUnits="userSpaceOnUse"  cx="190" cy="36" r="12">
			<stop offset="0" stop-color="#000c11"  />
			<stop offset="1" stop-color="#000c11" stop-opacity="0" />
		</radialGradient>
		<radialGradient id="grd17" gradientUnits="userSpaceOnUse"  cx="147" cy="30" r="12">
			<stop offset="0" stop-color="#000c11"  />
			<stop offset="1" stop-color="#000c11" stop-opacity="0" />
		</radialGradient>
		<radialGradient id="grd18" gradientUnits="userSpaceOnUse"  cx="184" cy="18" r="12">
			<stop offset="0" stop-color="#000c11"  />
			<stop offset="1" stop-color="#000c11" stop-opacity="0" />
		</radialGradient>
		<radialGradient id="grd19" gradientUnits="userSpaceOnUse"  cx="224" cy="18" r="12">
			<stop offset="0" stop-color="#000c11"  />
			<stop offset="1" stop-color="#000c11" stop-opacity="0" />
		</radialGradient>
		<radialGradient id="grd20" gradientUnits="userSpaceOnUse"  cx="259" cy="18" r="12">
			<stop offset="0" stop-color="#000c11"  />
			<stop offset="1" stop-color="#000c11" stop-opacity="0" />
		</radialGradient>
		<radialGradient id="grd21" gradientUnits="userSpaceOnUse"  cx="160" cy="36" r="12">
			<stop offset="0" stop-color="#000c11"  />
			<stop offset="1" stop-color="#000c11" stop-opacity="0" />
		</radialGradient>
	</defs>
	<style>
		tspan { white-space:pre }
		.s0 { opacity: 1;fill: #ffffff } 
		.s1 { fill: url(#grd1) } 
		.s2 { fill: url(#grd2) } 
		.s3 { fill: url(#grd3) } 
		.s4 { fill: url(#grd4) } 
		.s5 { fill: url(#grd5) } 
		.s6 { fill: url(#grd6) } 
		.s7 { fill: url(#grd7) } 
		.s8 { fill: url(#grd8) } 
		.s9 { fill: url(#grd9) } 
		.s10 { fill: url(#grd10) } 
		.s11 { fill: url(#grd11) } 
		.s12 { fill: url(#grd12) } 
		.s13 { fill: url(#grd13) } 
		.s14 { fill: url(#grd14) } 
		.s15 { fill: url(#grd15) } 
		.s16 { fill: url(#grd16) } 
		.s17 { fill: url(#grd17) } 
		.s18 { fill: url(#grd18) } 
		.s19 { fill: url(#grd19) } 
		.s20 { fill: url(#grd20) } 
		.s21 { fill: url(#grd21) } 
	</style>
	<g id="Layer">
		<path id="Layer" fill-rule="evenodd" class="s0" d="m2.55 4.7v-1.59h22.7c0 0.62 0 1.59 0 1.59c-2.05 0-10.4 0-10.4 0l0 29.3c-0.7 0-1.96 0-1.96 0l0-29.3h-10.35zm24.21-3.21c0.34 0.3 0.49 0.71 0.49 1.12v2.58c0 0.42-0.16 0.83-0.49 1.12c-0.32 0.28-0.71 0.38-1.06 0.38h-8.84v27.8c0 0.42-0.16 0.83-0.49 1.12c-0.32 0.28-0.71 0.38-1.06 0.38h-2.85c-0.34 0-0.74-0.1-1.06-0.38c-0.34-0.3-0.49-0.71-0.49-1.12l0-27.8h-8.84c-0.35 0-0.76-0.1-1.08-0.43c-0.32-0.32-0.43-0.73-0.43-1.08v-2.58c0-0.35 0.1-0.76 0.43-1.08c0.32-0.32 0.73-0.43 1.08-0.43h23.64c0.34 0 0.74 0.1 1.06 0.38zm0.39 12.83l0.62-0.25l0.38 0.93l0 0l-0.38-0.93c1.36-0.55 3.33-0.99 5.35-0.99c1.23 0 2.52 0.1 3.69 0.25l0-1.31c-1.47-0.19-2.86-0.3-4.2-0.3c-2.5 0-5.12 0.54-7.23 1.51l0 20.78h1.77v-19.68zm-3.35 21.26c-0.32-0.32-0.43-0.73-0.43-1.08v-21.48c0-0.24 0.04-0.55 0.21-0.85c0.17-0.31 0.44-0.54 0.77-0.67c2.44-1.16 5.42-1.78 8.25-1.78c1.58 0 3.19 0.14 4.88 0.38l0 0l-0.14 0.98l0 0.01l0.14-0.99c0.39 0.06 0.76 0.25 1.02 0.6c0.24 0.33 0.3 0.7 0.3 0.99l0 1.25c0.07-0.2 0.19-0.38 0.34-0.53l0.07-0.07l0.08-0.05c2.35-1.6 5.55-2.57 9.26-2.57c3 0 5.56 0.79 7.38 2.51c1.83 1.73 2.77 4.25 2.77 7.42v13.8c0 0.64-0.35 1.29-1.08 1.54c-2.27 0.82-5.64 1.53-9.21 1.53c-2.69 0-5.38-0.54-7.43-1.88c-2.1-1.38-3.46-3.58-3.46-6.66c0-2.75 1.15-4.89 3.16-6.3c1.96-1.38 4.67-2.01 7.73-2.01c1.52 0 3.13 0.17 4.52 0.38v-0.3c0-1.76-0.36-2.85-0.99-3.52c-0.61-0.65-1.67-1.09-3.53-1.09c-2.39 0-4.55 0.68-6 1.55c-0.27 0.17-0.65 0.33-1.11 0.24c-0.46-0.09-0.76-0.39-0.94-0.66l-1.33-1.93l-0.04-0.06l-0.03-0.06c-0.04-0.08-0.1-0.21-0.15-0.36v0.1c0 0.31-0.07 0.8-0.48 1.16c-0.41 0.36-0.9 0.36-1.25 0.29c-1.25-0.18-2.65-0.31-3.96-0.31c-1.46 0-2.88 0.27-3.97 0.62v18.8c0 0.35-0.1 0.78-0.45 1.1c-0.34 0.32-0.76 0.4-1.1 0.4h-2.71c-0.35 0-0.76-0.1-1.08-0.43zm17.95-20.84c1.74-0.95 4.1-1.62 6.66-1.62c2.14 0 3.84 0.5 4.99 1.72c1.13 1.21 1.53 2.92 1.53 4.89v2.66l-1.17-0.21c-1.54-0.27-3.54-0.54-5.35-0.54c-2.83 0-5.07 0.59-6.58 1.65c-1.46 1.03-2.31 2.54-2.31 4.67c0 2.39 1.01 3.97 2.56 4.99c1.61 1.06 3.86 1.55 6.33 1.55c3.2 0 6.24-0.62 8.29-1.33l0-13.54c0-2.77-0.81-4.71-2.14-5.96c-1.34-1.26-3.35-1.96-6.01-1.96c-3.08 0-5.66 0.73-7.59 1.87l0.8 1.15zm15.54 19.3l0 0l0 0l-0.2-0.6h0l0.2 0.6l-0.22-0.6l0 0l0.22 0.6zm-32.54-21.62l0 0l0 0l0.2 0.6h0l-0.2-0.6l0.29 0.6l0 0l-0.29-0.6zm12.51 1.98l0 0l0.12-0.46l0 0l-0.11 0.46zm17.67 9.2v8.47l-0.71 0.21c-1.45 0.44-3.62 0.87-5.81 0.87c-1.88 0-3.63-0.38-4.93-1.22c-1.35-0.87-2.19-2.22-2.19-3.97c0-1.56 0.61-2.9 1.91-3.81c1.24-0.88 3.01-1.28 5.2-1.28c1.97 0 4.19 0.29 5.7 0.57l0.82 0.15zm-2 6.97v-5.3c-1.35-0.21-3.03-0.39-4.52-0.39c-1.99 0-3.29 0.38-4.05 0.92c-0.71 0.5-1.06 1.2-1.06 2.18c0 1.01 0.45 1.76 1.27 2.29c0.87 0.56 2.19 0.9 3.84 0.9c1.62 0 3.26-0.27 4.52-0.59zm-11.31-15.17l0-0.01l-0.02 0.01l0 0.01l0.02-0.01zm-0.02 0.01l0-0.01l-0.41 0.28l0.41-0.28zm39.19 16.13l0.01 0.01c0.17 0.25 0.33 0.62 0.29 1.05c-0.04 0.46-0.3 0.83-0.64 1.06c-2.55 1.86-5.28 2.85-8.72 2.85c-3.26 0-5.98-0.98-7.9-2.76c-1.92-1.78-2.95-4.27-2.95-7.12v-6.99c0-2.87 1.04-5.38 2.96-7.16c1.91-1.78 4.62-2.76 7.84-2.76c2.92 0 5.59 0.85 8.05 2.47l-0.55 0.83l0 0l0.55-0.83l0.02 0.01l0.02 0.01c0.32 0.23 0.61 0.58 0.67 1.06c0.06 0.45-0.11 0.83-0.27 1.08l-1.19 1.88l-0.03 0.05l-0.03 0.04l-0.78-0.62l0 0l0.78 0.62c-0.2 0.25-0.5 0.48-0.89 0.57c-0.41 0.09-0.83 0-1.17-0.22l0 0c-1.55-1.01-3.25-1.54-5.07-1.54c-1.79 0-3.05 0.51-3.86 1.26c-0.8 0.75-1.26 1.85-1.26 3.26c0 0 0 6.99 0 6.99c0 1.43 0.47 2.52 1.27 3.27c0.81 0.75 2.06 1.25 3.8 1.25c1.88 0 3.74-0.61 5.57-1.83c0.28-0.22 0.67-0.39 1.13-0.33c0.48 0.07 0.81 0.36 1.02 0.66l1.33 1.88l0.01 0.01zm-16.13-11.9c0-1.86 0.62-3.52 1.89-4.71c1.26-1.19 3.06-1.81 5.23-1.81c2.07 0 4.01 0.57 5.76 1.62l0.72-1.13c-2.04-1.26-4.21-1.89-6.57-1.89c-2.81 0-5 0.86-6.48 2.23c-1.47 1.37-2.32 3.32-2.32 5.7v6.99c0 2.35 0.84 4.29 2.31 5.65c1.48 1.37 3.68 2.22 6.54 2.22c2.82 0 5.04-0.75 7.16-2.2l-0.79-1.12c-2.01 1.28-4.15 1.96-6.36 1.96c-2.12 0-3.9-0.61-5.17-1.79c-1.27-1.19-1.9-2.85-1.9-4.73v-6.99zm14.66 12.37l-0.02 0.01l-0.02 0.01l0.27 0.37l0.02-0.01l-0.25-0.38zm-0.45-18.51l0.45 0.3l0 0l-0.83-0.55l-0.01 0.01l-0.01 0.01l0.38 0.24l0.01-0.01zm-1.19 1.9l-0.28 0.42l0 0l0.55-0.83l-0.01-0.01l-0.27 0.41l0.01 0zm0.49 15.13l0.01 0.01l0.46-0.32l-0.46 0.31zm24.1 1.46c-0.07 0.47-0.36 0.79-0.58 0.97l0 0c-2.46 2.06-5.62 3.55-9.75 3.55c-2.66 0-5.32-0.76-7.34-2.37c-2.04-1.63-3.37-4.08-3.37-7.28v-6.99c0-3.42 1.29-6 3.34-7.71c2.03-1.68 4.71-2.44 7.41-2.44c2.68 0 5.33 0.76 7.33 2.45c2.02 1.71 3.28 4.29 3.28 7.7v4.51c0 0.34-0.09 0.76-0.4 1.1c-0.33 0.35-0.75 0.45-1.1 0.45h-14.04v0.93c0 1.45 0.53 2.48 1.35 3.17c0.84 0.7 2.09 1.12 3.63 1.12c2.87 0 4.82-1.11 6.42-2.36l0.03-0.02l0.03-0.02c0.3-0.2 0.69-0.34 1.14-0.26c0.43 0.08 0.75 0.34 0.96 0.64l1.32 1.72c0.21 0.26 0.41 0.65 0.34 1.14zm-4.25-18.29c-1.56-1.31-3.71-1.98-6.04-1.98c-2.36 0-4.55 0.66-6.13 1.98c-1.56 1.3-2.62 3.29-2.62 6.17v6.99c0 2.59 1.05 4.47 2.61 5.72c1.59 1.27 3.79 1.93 6.09 1.93c3.41 0 6.04-1.15 8.13-2.8l-0.79-1.03c-1.75 1.3-4.03 2.48-7.25 2.48c-1.87 0-3.61-0.51-4.91-1.58c-1.32-1.1-2.07-2.71-2.07-4.71v-2.93c0 0 12.85 0 15.55 0l0-4.06c0-2.88-1.04-4.88-2.57-6.18zm2.33 18.39l0.01 0.02l0.35-0.29l0.33 0.39l-0.32-0.39l0 0l-0.02-0.02l-0.36 0.28l0.01 0.02zm-1.44-9.28h-13.87v-2.93c0-2.2 0.7-3.93 2.01-5.1c1.29-1.16 3.04-1.65 4.93-1.65c1.85 0 3.6 0.51 4.89 1.66c1.31 1.17 2.04 2.9 2.04 5.09v2.93zm-10.53-6.55c-0.8 0.71-1.34 1.85-1.34 3.61l0 0.93h9.87v-0.93c0-1.72-0.56-2.87-1.37-3.59c-0.83-0.74-2.05-1.16-3.56-1.16c-1.56 0-2.78 0.41-3.59 1.14zm30.43 7.22c-0.32 0.32-0.73 0.43-1.08 0.43h-11.5c-0.35 0-0.76-0.1-1.08-0.43c-0.32-0.32-0.43-0.73-0.43-1.08v-2.48c0-0.35 0.1-0.76 0.43-1.08c0.32-0.32 0.73-0.43 1.08-0.43h11.5c0.35 0 0.76 0.1 1.08 0.43c0.32 0.32 0.42 0.73 0.42 1.08v2.48c0 0.35-0.1 0.76-0.42 1.08zm-1.58-3.07h-10.51v1.5l10.51 0c0-0.43 0-1.06 0-1.5zm8.95-6.09l0.62-0.25c1.36-0.55 3.33-0.99 5.34-0.99c1.23 0 2.52 0.1 3.69 0.25v-1.31c-1.48-0.19-2.86-0.3-4.2-0.3c-2.5 0-5.12 0.54-7.23 1.51c0 0 0 17.59 0 20.78h1.77l0-19.68zm-3.35 21.26c-0.32-0.32-0.43-0.73-0.43-1.08v-21.48c0-0.24 0.04-0.55 0.21-0.85c0.17-0.31 0.44-0.54 0.77-0.67c2.44-1.16 5.43-1.78 8.26-1.78c1.58 0 3.19 0.14 4.88 0.38l0 0l-0.13 0.88l-0.01 0.11l0.14-0.99c0.39 0.06 0.76 0.25 1.02 0.6c0.24 0.33 0.3 0.7 0.3 0.99v2.25c0 0.31-0.07 0.8-0.48 1.16c-0.41 0.36-0.9 0.36-1.25 0.29c-1.25-0.18-2.65-0.31-3.96-0.31c-1.46 0-2.88 0.27-3.97 0.62v18.8c0 0.35-0.1 0.78-0.45 1.1c-0.34 0.32-0.76 0.4-1.1 0.4h-2.71c-0.35 0-0.76-0.1-1.08-0.43zm13.46-21.19l0 0l0.12-0.46l0 0l-0.11 0.46zm22.13 17.6c-0.07 0.47-0.36 0.79-0.58 0.97l0 0c-2.46 2.06-5.62 3.55-9.75 3.55c-2.66 0-5.32-0.76-7.34-2.37c-2.04-1.63-3.37-4.08-3.37-7.28v-6.99c0-3.42 1.29-6 3.34-7.71c2.03-1.68 4.71-2.44 7.41-2.44c2.69 0 5.34 0.76 7.33 2.45c2.02 1.71 3.28 4.29 3.28 7.7v4.51c0 0.34-0.09 0.76-0.4 1.1c-0.33 0.35-0.75 0.45-1.1 0.45h-14.04v0.93c0 1.45 0.53 2.48 1.35 3.17c0.85 0.7 2.09 1.12 3.63 1.12c2.87 0 4.82-1.11 6.42-2.36l0.03-0.02l0.03-0.02c0.3-0.2 0.69-0.34 1.14-0.26c0.43 0.08 0.75 0.34 0.96 0.64l1.32 1.72c0.21 0.26 0.41 0.65 0.34 1.14zm-4.25-18.29c-1.56-1.31-3.71-1.98-6.04-1.98c-2.35 0-4.55 0.66-6.13 1.98c-1.56 1.3-2.62 3.29-2.62 6.17v6.99c0 2.59 1.05 4.47 2.61 5.72c1.59 1.27 3.79 1.93 6.09 1.93c3.41 0 6.04-1.15 8.13-2.8l-0.79-1.03c-1.75 1.3-4.03 2.48-7.25 2.48c-1.87 0-3.61-0.51-4.91-1.58c-1.32-1.1-2.07-2.71-2.07-4.71v-2.93c0 0 12.85 0 15.55 0v-4.06c0-2.88-1.04-4.88-2.57-6.18zm2.33 18.39l0.01 0.02l0.35-0.29l0.33 0.39l-0.34-0.41l0.01 0.02l-0.02-0.02l-0.36 0.28l0.01 0.02zm-1.44-9.28h-13.87v-2.93c0-2.2 0.7-3.93 2.01-5.1c1.29-1.16 3.04-1.65 4.93-1.65c1.85 0 3.6 0.51 4.89 1.66c1.31 1.17 2.04 2.9 2.04 5.09v2.93zm-10.53-6.55c-0.8 0.71-1.34 1.85-1.34 3.61l0 0.93h9.87v-0.93c0-1.72-0.56-2.87-1.37-3.59c-0.83-0.74-2.06-1.16-3.56-1.16c-1.56 0-2.78 0.41-3.59 1.14zm26.27 4.1l0 0c1.81 0.36 4.11 0.84 5.95 1.94c0.94 0.56 1.79 1.31 2.4 2.31c0.62 1.01 0.96 2.22 0.96 3.68c0 2.67-1.14 4.77-3.06 6.18c-1.88 1.38-4.45 2.05-7.28 2.05c-3.37 0-6.75-0.98-9.69-3.13c-0.34-0.23-0.58-0.58-0.63-1.01c-0.05-0.4 0.06-0.74 0.18-0.98l0.89 0.45l0 0l-0.89-0.45l0.02-0.03l0.02-0.03l1.24-2.11l0 0c0.16-0.27 0.46-0.66 1-0.76c0.52-0.1 0.94 0.13 1.19 0.31l-0.59 0.83l0.01-0.01l0.58-0.81l0.01 0.01l0.01 0.01c2.06 1.54 4.38 2.38 6.76 2.38c1.42 0 2.57-0.3 3.33-0.79c0.72-0.46 1.1-1.08 1.1-1.89c0-0.44-0.12-0.76-0.3-1.01c-0.19-0.26-0.48-0.5-0.91-0.72c-0.88-0.46-2.09-0.71-3.41-0.97l-0.01 0c-1.64-0.34-4.04-0.86-6.03-2.03c-2.04-1.2-3.74-3.15-3.74-6.26c0-2.72 1.32-4.71 3.26-5.98c1.9-1.24 4.37-1.78 6.8-1.78c3.07 0 5.81 0.78 8.46 2.27c0.35 0.17 0.68 0.48 0.79 0.95c0.11 0.47-0.04 0.88-0.23 1.17l-1.21 2.02c-0.17 0.32-0.47 0.62-0.89 0.74c-0.43 0.12-0.85 0.02-1.18-0.18c-1.76-0.94-3.84-1.57-5.94-1.57c-1.5 0-2.57 0.3-3.24 0.74c-0.63 0.41-0.92 0.95-0.92 1.62c0 0.44 0.11 0.75 0.29 1c0.19 0.26 0.49 0.51 0.94 0.75c0.94 0.49 2.29 0.8 3.94 1.13l-0.19 0.98l0.03-0.14l0.17-0.84zm-8.44 10.34l-0.76 1.3c2.5 1.72 5.33 2.51 8.18 2.51c2.55 0 4.66-0.6 6.09-1.66c1.41-1.03 2.24-2.54 2.24-4.56c0-1.12-0.26-1.97-0.67-2.63c-0.41-0.67-1-1.2-1.72-1.64c-1.5-0.9-3.45-1.32-5.32-1.69l0 0c-1.61-0.32-3.25-0.67-4.48-1.32c-0.63-0.33-1.22-0.77-1.64-1.37c-0.43-0.61-0.66-1.33-0.66-2.16c0-1.4 0.67-2.54 1.82-3.29c1.11-0.72 2.61-1.07 4.33-1.07c2.33 0 4.59 0.65 6.51 1.61l0.74-1.23c-2.25-1.19-4.52-1.79-7.06-1.79c-2.17 0-4.23 0.49-5.71 1.46c-1.44 0.94-2.35 2.33-2.35 4.3c0 2.22 1.14 3.59 2.75 4.54c1.67 0.98 3.75 1.45 5.43 1.8l0 0c1.25 0.25 2.75 0.54 3.94 1.15c0.61 0.31 1.19 0.74 1.61 1.33c0.44 0.61 0.67 1.33 0.67 2.18c0 1.58-0.8 2.8-2.02 3.58c-1.18 0.76-2.75 1.1-4.41 1.1c-2.68 0-5.26-0.88-7.51-2.45zm13.86-14.88l0.22-0.41l0.04 0.02l0 0l-0.04-0.02l0.02-0.04l0.04 0.03l-0.02 0.03l0 0l0 0l0 0l-0.26 0.39zm0.69-0.18l0 0l-0.42-0.21l0.29-0.44l-0.04-0.03l-0.04-0.02l-0.23 0.43l0 0l-0.02 0.04l0 0l0 0l0 0l-0.22 0.42l0 0l0 0l0.26-0.4l0.43 0.21zm0.86-2.3l0 0l0 0l0 0l0.39 0.23l0 0l-0.38-0.23l0.2-0.46l0 0l-0.19 0.44l-0.04-0.03l-0.01 0.02l0.05 0.03l0.01-0.02l-0.46-0.31l-0.01 0.02l-0.01 0.02l0.43 0.26l0 0l0.05 0.03zm-16.53 18.41l-0.02-0.01l-0.24 0.36l0 0l-0.31 0.47l0.01-0.01l0.31-0.46l0.02 0.01l0.26-0.35l-0.02-0.01zm0.97-1.77l0.42 0.25l0.01-0.01l-0.87-0.5l0.02 0.01l-0.02-0.01l0.44 0.26l0 0zm0 0l-0.42-0.25l0.42 0.24l0 0zm24.97 5.61c-0.32 0.32-0.73 0.43-1.08 0.43h-2.71c-0.34 0-0.76-0.08-1.1-0.4c-0.35-0.33-0.45-0.75-0.45-1.1v-22.72c0-0.35 0.1-0.75 0.41-1.08c0.32-0.34 0.74-0.47 1.14-0.47h2.71c0.41 0 0.83 0.16 1.12 0.49c0.28 0.32 0.38 0.71 0.38 1.06v22.72c0 0.35-0.1 0.76-0.43 1.08zm-1.57-23.36c0 0-1.12 0-1.77 0l0 21.78l1.77 0c0-3.01 0-18.9 0-21.78zm-0.84-8.92c-0.78 0-1.3 0.51-1.3 1.25c0 0.71 0.54 1.25 1.3 1.25c0.74 0 1.25-0.52 1.25-1.25c0-0.77-0.51-1.25-1.25-1.25zm-3.3 1.25c0-1.93 1.5-3.25 3.3-3.25c1.83 0 3.25 1.35 3.25 3.25c0 1.84-1.41 3.25-3.25 3.25c-1.81 0-3.3-1.39-3.3-3.25zm19.27 15.81c1.81 0.36 4.11 0.84 5.95 1.94c0.94 0.56 1.79 1.31 2.4 2.31c0.62 1.01 0.96 2.22 0.96 3.68c0 2.67-1.14 4.77-3.06 6.18c-1.88 1.38-4.45 2.05-7.28 2.05c-3.36 0-6.74-0.97-9.67-3.12c-0.35-0.23-0.59-0.59-0.65-1.02c-0.05-0.4 0.06-0.74 0.18-0.98l0.02-0.03l0.02-0.03l1.24-2.11l0 0c0.16-0.27 0.46-0.66 1-0.76c0.52-0.1 0.94 0.13 1.19 0.31l0.01 0.01l0.01 0.01c2.06 1.54 4.38 2.38 6.76 2.38c1.42 0 2.57-0.3 3.33-0.79c0.72-0.46 1.1-1.08 1.1-1.89c0-0.44-0.12-0.76-0.3-1.01c-0.19-0.26-0.48-0.5-0.91-0.72c-0.88-0.46-2.09-0.71-3.41-0.97l-0.01 0c-1.64-0.34-4.04-0.86-6.03-2.03c-2.05-1.2-3.74-3.15-3.74-6.26c0-2.72 1.32-4.71 3.26-5.98c1.9-1.24 4.37-1.78 6.8-1.78c3.07 0 5.8 0.78 8.46 2.27c0.35 0.17 0.69 0.48 0.8 0.95c0.11 0.46-0.04 0.86-0.21 1.15l-1.23 2.06c-0.17 0.31-0.47 0.6-0.88 0.72c-0.43 0.12-0.85 0.02-1.18-0.18c-1.76-0.94-3.84-1.57-5.94-1.57c-1.5 0-2.57 0.3-3.24 0.74c-0.63 0.41-0.92 0.95-0.92 1.62c0 0.44 0.11 0.75 0.29 1c0.19 0.26 0.49 0.51 0.94 0.75c0.94 0.49 2.29 0.8 3.94 1.13l0 0zm-8.45 10.34l-0.76 1.3c2.5 1.72 5.33 2.51 8.18 2.51c2.55 0 4.66-0.6 6.1-1.66c1.41-1.03 2.24-2.54 2.24-4.56c0-1.12-0.26-1.97-0.66-2.63c-0.41-0.67-1-1.2-1.72-1.64c-1.49-0.9-3.45-1.32-5.32-1.69l0 0c-1.61-0.32-3.25-0.67-4.48-1.32c-0.63-0.33-1.22-0.77-1.64-1.37c-0.43-0.61-0.66-1.33-0.66-2.16c0-1.4 0.67-2.54 1.82-3.29c1.1-0.72 2.61-1.07 4.33-1.07c2.33 0 4.59 0.65 6.51 1.61l0.74-1.23c-2.25-1.19-4.52-1.79-7.06-1.79c-2.17 0-4.23 0.49-5.71 1.46c-1.44 0.94-2.35 2.33-2.35 4.3c0 2.22 1.14 3.59 2.75 4.54c1.67 0.98 3.75 1.45 5.42 1.8c1.25 0.25 2.76 0.54 3.94 1.15c0.61 0.31 1.19 0.74 1.61 1.33c0.44 0.61 0.67 1.33 0.67 2.18c0 1.58-0.8 2.8-2.02 3.58c-1.18 0.76-2.75 1.1-4.41 1.1c-2.68 0-5.26-0.88-7.51-2.45zm15.37-17.39l0.01-0.02l-0.42-0.28l-0.01 0.02l-0.01 0.02l0.86 0.51l0 0l-0.42-0.25zm-1.22 2.08l0 0l0 0l0 0l-0.28 0.43l0 0l0.28-0.43l0.41 0.24l0 0l-0.41-0.24l0.27-0.4l-0.04-0.03l-0.04-0.02l-0.23 0.43l0.04 0.03l0 0zm-15.26 16.35l-0.02-0.01l-0.24 0.36l0.02 0.01l0.26-0.35l-0.02-0.01zm1.4-1.54l-0.43-0.24l0 0l0.42 0.25l0.01-0.01zm22.83-16.4c0 0 4.89 0 6.49 0c0 0 0-0.81 0-1.36h-6.43l-0.05-0.94l-0.3-5.13h-1.48v20.99c0 2.62 0.78 4.37 1.96 5.46c1.19 1.11 2.92 1.68 5.05 1.68c0.46 0 1.23-0.03 1.94-0.06c0 0 0-0.9 0-1.5c-0.67 0.04-1.33 0.07-1.76 0.07c-1.64 0-3.04-0.52-4.02-1.61c-0.96-1.07-1.4-2.54-1.4-4.22v-13.37zm7.57 17.11l0.03 0h0.03c0.34 0 0.76 0.08 1.1 0.4c0.35 0.33 0.45 0.75 0.45 1.1v2.44c0 0.3-0.07 0.66-0.31 0.97c-0.25 0.33-0.62 0.52-1 0.57l-0.04 0.01l-0.04 0c-0.83 0.05-1.91 0.09-2.54 0.09c-2.47 0-4.75-0.67-6.41-2.22c-1.68-1.56-2.59-3.89-2.59-6.92v-21.44c0-0.34 0.09-0.78 0.43-1.12c0.35-0.35 0.78-0.43 1.12-0.43h2.39c0.38 0 0.75 0.13 1.05 0.43c0.28 0.28 0.41 0.63 0.45 0.94l0.01 0.04l0 0.04l0.27 4.62h5.04c0.35 0 0.76 0.1 1.08 0.43c0.32 0.32 0.43 0.73 0.43 1.08v2.3c0 0.34-0.09 0.76-0.4 1.1c-0.33 0.35-0.75 0.45-1.1 0.45h-4.98l0 11.37c0 1.36 0.35 2.29 0.88 2.88c0.52 0.57 1.33 0.95 2.53 0.95c0.47 0 1.31-0.04 2.15-0.09zm2.57-18.59l0.08-0.05l0.56 0.83l0 0l-0.56-0.83c2.35-1.6 5.55-2.57 9.26-2.57c3 0 5.56 0.79 7.38 2.51c1.83 1.73 2.77 4.25 2.77 7.42v13.8c0 0.64-0.36 1.3-1.1 1.55c-2.27 0.82-5.64 1.52-9.2 1.52c-2.69 0-5.38-0.54-7.43-1.88c-2.1-1.38-3.46-3.58-3.46-6.66c0-2.75 1.15-4.89 3.16-6.3c1.97-1.38 4.67-2.01 7.73-2.01c1.52 0 3.13 0.17 4.52 0.38v-0.3c0-1.76-0.36-2.85-0.99-3.52c-0.61-0.65-1.67-1.09-3.53-1.09c-2.39 0-4.55 0.68-6 1.55c-0.27 0.17-0.65 0.32-1.1 0.23c-0.46-0.09-0.76-0.39-0.94-0.65l0 0l-1.33-1.93l-0.04-0.06l-0.03-0.06c-0.07-0.14-0.21-0.42-0.22-0.75c-0.02-0.42 0.14-0.78 0.41-1.05l0.07-0.07zm2.54 2.41c1.74-0.95 4.1-1.62 6.66-1.62c2.14 0 3.84 0.5 4.99 1.72c1.13 1.21 1.53 2.92 1.53 4.89v2.66l-1.17-0.21c-1.54-0.27-3.54-0.54-5.35-0.54c-2.83 0-5.07 0.59-6.58 1.65c-1.46 1.03-2.31 2.54-2.31 4.67c0 2.39 1.01 3.97 2.56 4.99c1.61 1.06 3.86 1.55 6.33 1.55c3.2 0 6.24-0.62 8.29-1.33v-13.54c0-2.77-0.81-4.71-2.14-5.96c-1.34-1.26-3.35-1.96-6.01-1.96c-3.08 0-5.66 0.73-7.59 1.87l0.8 1.15zm15.54 19.31l-0.21-0.62h0l0.2 0.6l0.01 0.02zm-15.68-18.67l-0.25-0.42l-0.02 0.01l-0.02 0.01l0.55 0.83l0-0.01l0 0.01l-0.26-0.43l0 0zm0.26 0.43l-0.27-0.41l0.02-0.01l0-0.01l-0.02 0.01l0 0.01l0.02-0.01l0.25 0.42zm13.06 7.78v8.47l-0.71 0.21c-1.45 0.44-3.62 0.87-5.81 0.87c-1.89 0-3.63-0.38-4.93-1.22c-1.35-0.87-2.19-2.22-2.19-3.97c0-1.56 0.61-2.9 1.92-3.81c1.25-0.88 3.01-1.28 5.2-1.28c1.97 0 4.19 0.29 5.7 0.57l0.81 0.15zm-2 6.97l0-5.3c-1.35-0.21-3.03-0.39-4.52-0.39c-1.99 0-3.29 0.38-4.05 0.92c-0.71 0.5-1.07 1.2-1.07 2.18c0 1.01 0.45 1.76 1.27 2.29c0.87 0.56 2.19 0.9 3.84 0.9c1.62 0 3.26-0.27 4.52-0.59zm12.51-16.34l0.69-0.22c1.52-0.49 3.7-0.88 5.74-0.88c2.2 0 4.14 0.49 5.53 1.79c1.4 1.31 2.05 3.28 2.05 5.84v13.26h1.77v-13.35c0-3.32-0.98-5.49-2.53-6.86c-1.57-1.39-3.88-2.08-6.82-2.08c-2.93 0-5.75 0.62-8.2 1.62c0 0 0 17.49 0 20.67l1.77 0v-19.78zm-3.35 21.36c-0.32-0.32-0.43-0.73-0.43-1.08v-21.34c0-0.24 0.04-0.54 0.2-0.84c0.16-0.31 0.42-0.54 0.72-0.7l0.03-0.01l0.03-0.01l0.39 0.92l0 0.01l-0.39-0.92c2.74-1.15 5.9-1.87 9.22-1.87c3.22 0 6.08 0.76 8.15 2.58c2.09 1.84 3.2 4.63 3.2 8.36v13.85c0 0.35-0.1 0.78-0.45 1.1c-0.34 0.32-0.76 0.4-1.1 0.4h-2.71c-0.35 0-0.76-0.1-1.08-0.43c-0.32-0.32-0.43-0.73-0.43-1.08v-13.75c0-2.23-0.57-3.58-1.42-4.38c-0.87-0.81-2.21-1.25-4.16-1.25c-1.53 0-3.16 0.25-4.43 0.58v18.8c0 0.35-0.1 0.78-0.45 1.1c-0.34 0.32-0.76 0.4-1.1 0.4h-2.71c-0.35 0-0.76-0.1-1.08-0.43zm27.86-21.77c0 0 4.89 0 6.49 0c0 0 0-0.81 0-1.36h-6.43l-0.05-0.94l-0.3-5.13h-1.48v20.99c0 2.62 0.78 4.37 1.96 5.46c1.19 1.11 2.91 1.68 5.04 1.68c0.46 0 1.23-0.03 1.94-0.06c0 0 0-0.9 0-1.5c-0.67 0.04-1.33 0.07-1.76 0.07c-1.64 0-3.04-0.52-4.02-1.61c-0.96-1.07-1.4-2.54-1.4-4.22v-13.37zm7.57 17.11l0.06 1.01v-0.01l-0.06-1l0.03 0h0.03c0.34 0 0.76 0.08 1.1 0.4c0.35 0.33 0.45 0.75 0.45 1.1v2.44c0 0.3-0.07 0.66-0.31 0.97c-0.25 0.33-0.62 0.52-1 0.57l-0.04 0.01l-0.04 0l-0.06-1l0-0.01l0.06 1c-0.83 0.05-1.91 0.09-2.54 0.09c-2.47 0-4.74-0.67-6.41-2.22c-1.68-1.56-2.59-3.89-2.59-6.92v-21.44c0-0.34 0.08-0.78 0.43-1.12c0.35-0.35 0.78-0.43 1.12-0.43h2.39c0.38 0 0.75 0.13 1.05 0.43c0.28 0.28 0.4 0.63 0.45 0.94l0.01 0.04l0 0.04l0.27 4.62h5.04c0.35 0 0.76 0.1 1.08 0.43c0.32 0.32 0.43 0.73 0.43 1.08v2.3c0 0.34-0.08 0.76-0.4 1.1c-0.33 0.35-0.75 0.45-1.1 0.45h-4.98v11.37c0 1.36 0.35 2.29 0.88 2.88c0.52 0.57 1.33 0.95 2.54 0.95c0.47 0 1.31-0.04 2.15-0.09z" />
	</g>
	<g id="Layer" style="opacity: .8">
		<path id="Layer" class="s1" d="m65 50c-6.64 0-12-5.36-12-12c0-6.64 5.36-12 12-12c6.64 0 12 5.36 12 12c0 6.64-5.36 12-12 12z" />
		<path id="Layer" class="s2" d="m22 44c-6.64 0-12-5.36-12-12c0-6.64 5.36-12 12-12c6.64 0 12 5.36 12 12c0 6.64-5.36 12-12 12z" />
		<path id="Layer" class="s3" d="m35 50c-6.64 0-12-5.36-12-12c0-6.64 5.36-12 12-12c6.64 0 12 5.36 12 12c0 6.64-5.36 12-12 12z" />
		<path id="Layer" class="s4" d="m35 22c-6.64 0-12-5.36-12-12c0-6.64 5.36-12 12-12c6.64 0 12 5.36 12 12c0 6.64-5.36 12-12 12z" />
		<path id="Layer" class="s5" d="m49 28c-6.64 0-12-5.36-12-12c0-6.64 5.36-12 12-12c6.64 0 12 5.36 12 12c0 6.64-5.36 12-12 12z" />
		<path id="Layer" class="s6" d="m86 16c-6.64 0-12-5.36-12-12c0-6.64 5.36-12 12-12c6.64 0 12 5.36 12 12c0 6.64-5.36 12-12 12z" />
		<path id="Layer" class="s7" d="m62 34c-6.64 0-12-5.36-12-12c0-6.64 5.36-12 12-12c6.64 0 12 5.36 12 12c0 6.64-5.36 12-12 12z" />
		<path id="Layer" class="s8" d="m70 34c-6.64 0-12-5.36-12-12c0-6.64 5.36-12 12-12c6.64 0 12 5.36 12 12c0 6.64-5.36 12-12 12z" />
		<path id="Layer" class="s9" d="m116 38c-6.64 0-12-5.36-12-12c0-6.64 5.36-12 12-12c6.64 0 12 5.36 12 12c0 6.64-5.36 12-12 12z" />
		<path id="Layer" class="s10" d="m84 40c-6.64 0-12-5.36-12-12c0-6.64 5.36-12 12-12c6.64 0 12 5.36 12 12c0 6.64-5.36 12-12 12z" />
		<path id="Layer" class="s11" d="m121 28c-6.64 0-12-5.36-12-12c0-6.64 5.36-12 12-12c6.64 0 12 5.36 12 12c0 6.64-5.36 12-12 12z" />
		<path id="Layer" class="s12" d="m97 46c-6.64 0-12-5.36-12-12c0-6.64 5.36-12 12-12c6.64 0 12 5.36 12 12c0 6.64-5.36 12-12 12z" />
		<path id="Layer" class="s13" d="m105 22c-6.64 0-12-5.36-12-12c0-6.64 5.36-12 12-12c6.64 0 12 5.36 12 12c0 6.64-5.36 12-12 12z" />
		<path id="Layer" class="s14" d="m133 36c-6.64 0-12-5.36-12-12c0-6.64 5.36-12 12-12c6.64 0 12 5.36 12 12c0 6.64-5.36 12-12 12z" />
		<path id="Layer" class="s15" d="m179 40c-6.64 0-12-5.36-12-12c0-6.64 5.36-12 12-12c6.64 0 12 5.36 12 12c0 6.64-5.36 12-12 12z" />
		<path id="Layer" class="s16" d="m190 48c-6.64 0-12-5.36-12-12c0-6.64 5.36-12 12-12c6.64 0 12 5.36 12 12c0 6.64-5.36 12-12 12z" />
		<path id="Layer" class="s17" d="m147 42c-6.64 0-12-5.36-12-12c0-6.64 5.36-12 12-12c6.64 0 12 5.36 12 12c0 6.64-5.36 12-12 12z" />
		<path id="Layer" class="s18" d="m184 30c-6.64 0-12-5.36-12-12c0-6.64 5.36-12 12-12c6.64 0 12 5.36 12 12c0 6.64-5.36 12-12 12z" />
		<path id="Layer" class="s19" d="m224 30c-6.64 0-12-5.36-12-12c0-6.64 5.36-12 12-12c6.64 0 12 5.36 12 12c0 6.64-5.36 12-12 12z" />
		<path id="Layer" class="s20" d="m259 30c-6.64 0-12-5.36-12-12c0-6.64 5.36-12 12-12c6.64 0 12 5.36 12 12c0 6.64-5.36 12-12 12z" />
		<path id="Layer" class="s21" d="m160 48c-6.64 0-12-5.36-12-12c0-6.64 5.36-12 12-12c6.64 0 12 5.36 12 12c0 6.64-5.36 12-12 12z" />
	</g>
</svg>