<svg width="17" height="20" viewBox="0 0 17 20" fill="none" xmlns="http://www.w3.org/2000/svg">
  <g opacity="0.5" clip-path="url(#clip0_1_872)">
    <path
      d="M14.1735 19.2C13.0792 20.252 11.8718 20.088 10.721 19.592C9.4975 19.086 8.37897 19.054 7.08681 19.592C5.47766 20.28 4.62362 20.08 3.6545 19.2C-1.817 13.62 -1.0094 5.12002 5.20913 4.80002C6.71733 4.88002 7.77327 5.62602 8.66163 5.68802C9.98206 5.42202 11.246 4.66002 12.6593 4.76002C14.3572 4.89602 15.6272 5.56002 16.4752 6.75402C12.9823 8.83402 13.8101 13.394 17.0183 14.674C16.3762 16.344 15.5525 17.994 14.1715 19.214L14.1735 19.2ZM8.54049 4.74002C8.37695 2.26002 10.406 0.22002 12.74 0.0200195C13.061 2.88002 10.1153 5.02002 8.54049 4.74002Z"
      fill="#00B2FF" />
  </g>
  <defs>
    <clipPath id="clip0_1_872">
      <rect width="17" height="20" fill="white" />
    </clipPath>
  </defs>
</svg>