<svg width="32" height="32" viewBox="0 0 32 32" fill="none" xmlns="http://www.w3.org/2000/svg">
<g clip-path="url(#clip0_12500_32937)">
<path d="M10.387 22.1307H19.893L19.439 20.6607C19.5063 20.7193 23.3337 24 23.3337 24V9.65C23.2883 8.758 22.5203 8 21.5683 8L10.3903 8.002C9.43899 8.002 8.66699 8.76133 8.66699 9.65333V20.48C8.66699 21.4207 9.43766 22.1307 10.387 22.1307V22.1307ZM17.419 11.7887L17.397 11.7967L17.405 11.7887H17.419ZM12.3317 12.6347C13.5537 11.7453 14.6863 11.788 14.6863 11.788L14.7777 11.878C13.2823 12.2347 12.6043 12.9027 12.6043 12.9027C12.6737 12.888 15.693 11.146 19.3517 12.9467C19.3517 12.9467 18.6723 12.322 17.269 11.922L17.393 11.8C17.587 11.8007 18.6137 11.8367 19.7123 12.64C19.7123 12.64 20.9417 14.74 20.9417 17.32C20.901 17.2707 20.179 18.4307 18.321 18.4707C18.321 18.4707 18.0063 18.1147 17.7823 17.804C18.869 17.492 19.2757 16.868 19.2757 16.868C17.1603 18.2 15.3063 17.992 13.0883 17.092C13.0677 17.092 13.0583 17.0827 13.0477 17.072V17.068C13.037 17.058 13.0277 17.048 13.007 17.048H12.967C12.831 16.9587 12.7403 16.9147 12.7403 16.9147C12.7403 16.9147 13.1463 17.5387 14.1897 17.8507C13.9157 18.1633 13.6443 18.5187 13.6443 18.5187C11.787 18.4747 11.1097 17.3147 11.1097 17.3147C11.1097 14.7307 12.3317 12.6347 12.3317 12.6347V12.6347Z" fill="#6892B8"/>
<path d="M17.5387 16.5138C18.0127 16.5138 18.3987 16.1138 18.3987 15.6205C18.3987 15.1305 18.0147 14.7305 17.5387 14.7305V14.7325C17.0667 14.7325 16.68 15.1311 16.6787 15.6245C16.6787 16.1138 17.0647 16.5138 17.5387 16.5138Z" fill="#6892B8"/>
<path d="M14.4606 16.5138C14.9346 16.5138 15.3206 16.1138 15.3206 15.6205C15.3206 15.1305 14.9372 14.7305 14.4633 14.7305L14.4606 14.7325C13.9866 14.7325 13.6006 15.1311 13.6006 15.6245C13.6006 16.1138 13.9866 16.5138 14.4606 16.5138V16.5138Z" fill="#6892B8"/>
</g>
<rect x="1" y="1" width="30" height="30" rx="5" stroke="#6892B8" stroke-width="2"/>
<defs>
<clipPath id="clip0_12500_32937">
<rect width="16" height="16" fill="white" transform="translate(8 8)"/>
</clipPath>
</defs>
</svg>
