<svg width="32" height="32" viewBox="0 0 32 32" fill="none" xmlns="http://www.w3.org/2000/svg">
<path d="M16 8C11.6 8 8 11.6 8 16C8 19.55 10.3 22.55 13.45 23.6C13.85 23.65 14 23.45 14 23.2C14 23 14 22.5 14 21.85C11.75 22.35 11.3 20.8 11.3 20.8C10.95 19.9 10.4 19.65 10.4 19.65C9.65 19.15 10.45 19.15 10.45 19.15C11.25 19.2 11.7 19.95 11.7 19.95C12.4 21.15 13.55 20.8 14.05 20.6C14.1 20.1 14.35 19.75 14.55 19.55C12.75 19.35 10.9 18.65 10.9 15.6C10.9 14.75 11.2 14 11.7 13.45C11.6 13.25 11.35 12.45 11.8 11.35C11.8 11.35 12.45 11.15 14 12.15C14.65 11.95 15.3 11.9 16 11.9C16.7 11.9 17.35 12 18 12.15C19.55 11.1 20.2 11.35 20.2 11.35C20.65 12.45 20.35 13.25 20.3 13.45C20.8 14 21.1 14.7 21.1 15.6C21.1 18.65 19.25 19.35 17.45 19.55C17.75 19.8 18 20.3 18 21.05C18 22.1 18 23 18 23.25C18 23.45 18.15 23.7 18.55 23.65C21.7 22.55 24 19.55 24 16C24 11.6 20.4 8 16 8Z" fill="#6892B8"/>
<rect x="1" y="1" width="30" height="30" rx="5" stroke="#6892B8" stroke-width="2"/>
</svg>
