<svg width="32" height="32" viewBox="0 0 32 32" fill="none" xmlns="http://www.w3.org/2000/svg">
<path d="M23.455 12.908C23.4185 12.1095 23.292 11.5645 23.1065 11.0875C22.915 10.5945 22.6585 10.176 22.2415 9.759C21.8245 9.342 21.4065 9.0855 20.913 8.894C20.436 8.7085 19.8905 8.582 19.0925 8.5455C18.2925 8.5085 18.037 8.5 16 8.5C13.963 8.5 13.7075 8.5085 12.908 8.545C12.1095 8.5815 11.5645 8.708 11.0875 8.8935C10.5945 9.085 10.176 9.3415 9.759 9.7585C9.342 10.1755 9.0855 10.5935 8.894 11.087C8.7085 11.564 8.582 12.1095 8.5455 12.9075C8.5085 13.7075 8.5 13.963 8.5 16C8.5 18.037 8.5085 18.2925 8.545 19.092C8.5815 19.8905 8.708 20.4355 8.8935 20.9125C9.085 21.4055 9.3415 21.824 9.7585 22.241C10.1755 22.658 10.5935 22.9145 11.087 23.106C11.564 23.2915 12.1095 23.418 12.9075 23.4545C13.7075 23.4915 13.963 23.5 16 23.5C18.037 23.5 18.2925 23.4915 19.092 23.455C19.8905 23.4185 20.4355 23.292 20.9125 23.1065C21.4055 22.915 21.824 22.6585 22.241 22.2415C22.658 21.8245 22.9145 21.4065 23.106 20.913C23.2915 20.436 23.418 19.8905 23.4545 19.0925C23.4915 18.2925 23.5 18.037 23.5 16C23.5 13.963 23.4915 13.7075 23.455 12.908ZM22.105 19.0305C22.0715 19.7615 21.9495 20.159 21.847 20.423C21.711 20.773 21.5485 21.023 21.286 21.2855C21.0235 21.548 20.7735 21.7105 20.4235 21.8465C20.159 21.949 19.762 22.0715 19.031 22.1045C18.2405 22.1405 18.003 22.148 16.0005 22.148C13.998 22.148 13.7605 22.1405 12.97 22.1045C12.239 22.071 11.8415 21.949 11.5775 21.8465C11.2275 21.7105 10.9775 21.548 10.715 21.2855C10.4525 21.023 10.29 20.773 10.154 20.423C10.0515 20.1585 9.929 19.7615 9.896 19.0305C9.86 18.2395 9.8525 18.0025 9.8525 16C9.8525 13.9975 9.86 13.76 9.896 12.9695C9.9295 12.2385 10.0515 11.841 10.154 11.577C10.29 11.227 10.4525 10.977 10.715 10.7145C10.9775 10.452 11.2275 10.2895 11.5775 10.1535C11.842 10.051 12.239 9.9285 12.97 9.8955C13.761 9.8595 13.998 9.852 16.0005 9.852C18.003 9.852 18.2405 9.8595 19.031 9.8955C19.762 9.929 20.1595 10.051 20.4235 10.1535C20.7735 10.2895 21.0235 10.452 21.286 10.7145C21.5485 10.977 21.711 11.227 21.847 11.577C21.9495 11.8415 22.072 12.2385 22.105 12.9695C22.141 13.7605 22.1485 13.9975 22.1485 16C22.1485 18.0025 22.141 18.24 22.105 19.0305ZM16 12.1485C13.873 12.1485 12.1485 13.873 12.1485 16C12.1485 18.127 13.873 19.8515 16 19.8515C18.127 19.8515 19.8515 18.127 19.8515 16C19.8515 13.873 18.127 12.1485 16 12.1485ZM16 18.5C14.6195 18.5 13.5 17.3805 13.5 16C13.5 14.6195 14.6195 13.5 16 13.5C17.3805 13.5 18.5 14.6195 18.5 16C18.5 17.3805 17.3805 18.5 16 18.5ZM20.0035 11.0965C19.5065 11.0965 19.1035 11.4995 19.1035 11.9965C19.1035 12.4935 19.5065 12.8965 20.0035 12.8965C20.5005 12.8965 20.9035 12.4935 20.9035 11.9965C20.9035 11.4995 20.5005 11.0965 20.0035 11.0965Z" fill="#6892B8"/>
<rect x="1" y="1" width="30" height="30" rx="5" stroke="#6892B8" stroke-width="2"/>
</svg>
