<svg width="21" height="21" viewBox="0 0 21 21" fill="none" xmlns="http://www.w3.org/2000/svg">
  <g opacity="0.5" clip-path="url(#clip0_1_876)">
    <path
      d="M19.2734 17.5833C19.1877 17.4856 19.0665 17.39 18.9103 17.2962C18.8867 17.2809 18.8224 17.2437 18.7174 17.1854C18.612 17.1267 18.528 17.0759 18.4652 17.0328C18.4028 16.9898 18.3208 16.9157 18.2191 16.8102C18.1177 16.7049 18.0377 16.5933 17.9789 16.4762C17.9204 16.3592 17.8637 16.201 17.809 16.0017C17.7542 15.8024 17.7233 15.5818 17.7153 15.3396C17.6059 15.433 17.5454 15.6185 17.5337 15.8961C17.5219 16.1734 17.5806 16.4563 17.7095 16.7454C17.8383 17.0346 18.0317 17.2218 18.2895 17.308C18.5393 17.3941 18.7405 17.4856 18.893 17.5832C19.0451 17.681 19.143 17.7921 19.186 17.9171C19.229 18.0424 19.1565 18.1771 18.9692 18.3215C18.7815 18.4662 18.4808 18.6086 18.0669 18.7496C17.4966 18.9447 17.0922 19.1109 16.8539 19.2474C16.6157 19.3842 16.2662 19.6441 15.8052 20.0267C15.4926 20.2845 15.1607 20.4233 14.809 20.4428C14.4577 20.4625 14.1723 20.3336 13.9537 20.0563C13.7349 19.779 13.6644 19.3866 13.7426 18.8786C13.8911 17.9021 13.8874 17.1404 13.7313 16.5936C13.6062 16.164 13.5787 15.785 13.6492 15.4569C13.7195 15.1291 13.8287 14.9378 13.9773 14.883C14.1253 14.8281 14.2858 14.9454 14.4577 15.2343C14.473 15.2734 14.5084 15.3495 14.5629 15.4629C14.6175 15.5761 14.6623 15.6564 14.6978 15.703C14.733 15.75 14.7857 15.8105 14.856 15.8848C14.9262 15.9592 15.0146 16.0118 15.1198 16.0432C15.2251 16.0744 15.3481 16.0939 15.4889 16.1017C15.7545 16.1094 15.9926 16.0547 16.2037 15.9376C16.4145 15.8205 16.573 15.6896 16.6783 15.5451C16.7836 15.4004 16.8892 15.2619 16.9946 15.129C17.0999 14.996 17.1918 14.9218 17.27 14.9061C17.3559 14.8908 17.4341 14.8048 17.5044 14.6483C17.5747 14.4922 17.6216 14.2754 17.6451 13.9982C17.6687 13.7208 17.649 13.3907 17.5866 13.0081C17.4693 12.3282 17.2368 11.5822 16.8892 10.7698C16.5415 9.95727 16.1531 9.3206 15.7233 8.85965C14.95 8.03948 14.4307 7.18799 14.1648 6.30515C13.8916 5.3756 13.7746 4.53968 13.8135 3.79749C13.8527 3.26623 13.7374 2.69006 13.468 2.06895C13.1986 1.44793 12.841 0.973343 12.3957 0.645243C12.1146 0.434404 11.7668 0.272324 11.353 0.158962C10.939 0.0456008 10.5248 -0.00697564 10.1107 0.000740494C9.60308 0.000740494 9.19671 0.0827039 8.89217 0.246836C8.2672 0.582816 7.85328 0.990951 7.65003 1.4714C7.44679 1.95177 7.35321 2.54354 7.36872 3.24665C7.40012 4.79345 7.46247 6.0043 7.55629 6.87918C7.44683 7.28547 6.9626 8.04703 6.10319 9.16415C5.94686 9.32048 5.79451 9.53136 5.64605 9.79695C5.49768 10.0626 5.38046 10.301 5.29456 10.5117C5.20853 10.7226 5.09336 11.0272 4.94885 11.4257C4.80426 11.824 4.70087 12.1054 4.63832 12.2693C4.58365 12.4102 4.49766 12.5739 4.38057 12.7618C4.26335 12.9491 4.1694 13.1328 4.09926 13.3122C4.02911 13.4918 3.98996 13.6949 3.98216 13.9215C3.97436 14.0934 3.98216 14.2419 4.00564 14.3668C4.03679 14.5545 4.09552 14.613 4.18134 14.5427C4.53304 14.2771 4.97442 14.4333 5.50556 15.0116C5.88053 15.4178 6.54072 16.3631 7.48594 17.8474C7.56405 17.9802 7.64211 18.1227 7.72022 18.2754C7.79853 18.4275 7.87253 18.6305 7.94292 18.8844C8.01323 19.1386 8.04257 19.3669 8.03079 19.5701C8.01897 19.7734 7.92925 19.9609 7.76126 20.1325C7.59327 20.3043 7.34131 20.4136 7.00545 20.4605C6.82568 20.4839 6.60909 20.4685 6.35508 20.4136C6.10118 20.3589 5.77891 20.2691 5.38838 20.1442C4.99778 20.0193 4.70879 19.9332 4.52126 19.8863C4.248 19.8237 3.85936 19.744 3.35539 19.6461C2.85146 19.5483 2.52131 19.4761 2.3651 19.4292C2.0995 19.359 1.95503 19.2576 1.93164 19.1246C1.90816 19.0152 1.96283 18.8278 2.09569 18.5624C2.22863 18.2967 2.29491 18.1051 2.29491 17.9882C2.30263 17.9021 2.29877 17.8164 2.28309 17.7303C2.26758 17.6443 2.25001 17.5779 2.23043 17.531C2.2109 17.4842 2.17769 17.4139 2.13078 17.32C2.08387 17.2264 2.05267 17.1558 2.03704 17.1092C1.8965 16.781 1.87693 16.5581 1.97847 16.4411C2.04869 16.3395 2.21668 16.3005 2.48227 16.324C2.88068 16.3631 3.20484 16.3044 3.45488 16.1481C3.8688 15.8903 3.99394 15.4763 3.82981 14.9059C3.82981 15.1714 3.78289 15.3705 3.68915 15.5035C3.59541 15.6362 3.43128 15.773 3.197 15.9138C3.06427 15.9919 2.82979 16.0386 2.49397 16.0545C2.15811 16.0701 1.93537 16.1249 1.82603 16.2186C1.74797 16.2889 1.70701 16.3944 1.70307 16.535C1.69921 16.6759 1.7169 16.8182 1.75589 16.9629C1.79488 17.1074 1.834 17.2732 1.87299 17.4608C1.9121 17.6484 1.92761 17.8048 1.9199 17.9296C1.9121 18.0155 1.84159 18.2285 1.70885 18.568C1.57612 18.9079 1.54879 19.1677 1.62689 19.3473C1.66601 19.4334 1.73229 19.5096 1.82607 19.5759C1.91978 19.6423 2.05062 19.699 2.21857 19.746C2.3864 19.793 2.54076 19.83 2.68146 19.8573C2.82199 19.8844 3.01727 19.9197 3.26723 19.9625C3.51722 20.0053 3.7164 20.0427 3.86486 20.0737C4.36485 20.1754 4.93506 20.3434 5.57571 20.5776C6.21627 20.8121 6.64977 20.933 6.87633 20.9407C7.09509 20.9485 7.304 20.9037 7.50326 20.8059C7.70245 20.7084 7.87232 20.597 8.01298 20.472C8.15351 20.347 8.3625 20.2297 8.63975 20.1205C8.9172 20.0111 9.2277 19.9525 9.57147 19.9447C9.72768 19.9369 9.95424 19.9271 10.2511 19.9154C10.5479 19.9036 10.7705 19.8979 10.919 19.8979C11.5908 19.8979 12.0985 19.9016 12.4422 19.9095C12.6766 19.9175 12.8602 19.9545 12.993 20.0209C13.1258 20.0872 13.2119 20.1635 13.2508 20.2492C13.2898 20.3354 13.3546 20.4348 13.4445 20.5482C13.5341 20.6614 13.6493 20.7532 13.7897 20.8234C14.0865 20.9642 14.4343 21.0208 14.8328 20.9934C15.2311 20.9661 15.4969 20.8899 15.6295 20.7649C15.8483 20.5541 16.1431 20.3039 16.5141 20.015C16.8853 19.7261 17.2196 19.5073 17.5162 19.3588C17.5786 19.3273 17.684 19.2766 17.8325 19.2062C17.9808 19.1359 18.1057 19.0755 18.2072 19.0245C18.3088 18.9737 18.432 18.9092 18.5762 18.8311C18.7208 18.7529 18.838 18.6807 18.9279 18.6142C19.0177 18.5478 19.1094 18.4718 19.2032 18.3857C19.2969 18.2999 19.3574 18.2139 19.385 18.128C19.4119 18.0421 19.422 17.9541 19.4142 17.8643C19.4062 17.7747 19.3595 17.6812 19.2734 17.5833ZM12.9928 6.25775C13.0161 6.24223 13.0318 6.23632 13.0395 6.24018C13.0474 6.24412 13.063 6.2598 13.0863 6.28709C13.1099 6.31443 13.1312 6.33992 13.1509 6.36335C13.1704 6.38658 13.1976 6.41798 13.2327 6.45697C13.2678 6.49609 13.3049 6.52728 13.3438 6.55071C13.391 6.58191 13.4474 6.60354 13.5139 6.61519C13.5803 6.62685 13.6311 6.64639 13.6664 6.67368C13.7017 6.70097 13.7271 6.74588 13.7425 6.80847C13.7579 6.89449 13.7448 6.97243 13.7019 7.04274C13.6586 7.11313 13.6021 7.14445 13.5317 7.13657C13.391 7.10529 13.2387 6.98233 13.0747 6.76746C12.9109 6.55264 12.8834 6.38277 12.9928 6.25775ZM11.5396 1.70551C11.5785 1.65474 11.602 1.61374 11.6097 1.58255C11.6253 1.53551 11.6273 1.48675 11.6156 1.43598C11.604 1.38521 11.6078 1.33444 11.6273 1.28367C11.647 1.2329 11.6919 1.2036 11.7622 1.1958C11.8325 1.1958 11.9263 1.25445 12.0435 1.37159C12.0668 1.38726 12.1039 1.4107 12.1544 1.44189C12.2053 1.47317 12.2404 1.50046 12.2599 1.52386C12.2794 1.54717 12.2891 1.56691 12.2891 1.58243C12.2735 1.62142 12.2384 1.649 12.1839 1.66451C12.1295 1.68003 12.0706 1.68799 12.0082 1.68799C11.9459 1.68799 11.9104 1.69185 11.9028 1.69965C11.8403 1.72312 11.7817 1.75821 11.7269 1.80504C11.6723 1.85196 11.6293 1.88709 11.5981 1.91053C11.5666 1.93392 11.5355 1.93392 11.5043 1.91053C11.4731 1.86361 11.4613 1.83041 11.4692 1.81095C11.4771 1.7915 11.5006 1.75628 11.5396 1.70551ZM5.86818 10.4765C5.92269 10.4141 5.96188 10.3633 5.98528 10.3242C6.00871 10.2851 6.03014 10.2323 6.04971 10.166C6.06925 10.0995 6.08682 10.0506 6.10245 10.0194C6.11817 9.98805 6.14165 9.97639 6.17284 9.98419C6.18836 9.98033 6.20002 9.98805 6.2081 10.0076C6.21582 10.0272 6.21976 10.037 6.21976 10.037V10.0721C6.21976 10.084 6.21775 10.0995 6.21385 10.1191C6.20991 10.1388 6.204 10.1563 6.19628 10.1718C6.18836 10.1875 6.1806 10.211 6.17284 10.2421C6.16505 10.2733 6.15733 10.3007 6.14937 10.3241C6.11817 10.4024 6.06925 10.4726 6.00297 10.5351C5.93652 10.5976 5.88763 10.625 5.8564 10.6171C5.80953 10.6016 5.81355 10.5545 5.86818 10.4765ZM13.5314 17.7064C13.5158 17.9563 13.463 18.308 13.3731 18.7611C13.2833 19.2141 13.2265 19.5149 13.203 19.6633C13.039 19.6553 12.9453 19.5947 12.9218 19.4815C12.8985 19.3681 12.9218 19.2218 12.9922 19.042C13.164 18.5184 13.2536 18.1591 13.2616 17.964C13.2775 17.6046 13.2383 17.4015 13.1447 17.3547C13.0584 17.2922 12.9257 17.4095 12.7461 17.7061C12.4021 18.2686 11.7109 18.6082 10.672 18.7257C9.7347 18.8507 9.0863 18.7101 8.72684 18.3036C8.64874 18.249 8.57063 18.2393 8.49257 18.2745C8.41446 18.3094 8.36369 18.3467 8.34026 18.3855C8.33254 18.4012 8.34026 18.4245 8.36373 18.4559C8.38717 18.4872 8.42427 18.5339 8.47504 18.5965C8.52581 18.6592 8.56682 18.7215 8.59801 18.7842C8.9028 19.3153 8.8755 19.6746 8.51605 19.8621C8.51605 19.503 8.48871 19.2275 8.43408 19.0362C8.37937 18.8448 8.27011 18.634 8.10598 18.4034C7.94202 18.173 7.82874 17.9991 7.76631 17.882C8.00058 17.8587 8.17834 17.7687 8.29946 17.6125C8.42054 17.4562 8.47517 17.2883 8.46351 17.1086C8.45177 16.9289 8.38348 16.7804 8.25846 16.6632C8.18815 16.593 7.8248 16.2941 7.16864 15.7668C6.51252 15.2395 6.10623 14.886 5.95006 14.7064C5.91866 14.6751 5.82504 14.597 5.66875 14.4719C5.51242 14.347 5.41473 14.2377 5.37574 14.1438C5.01633 13.3552 4.97734 12.7065 5.25852 12.1989L5.30535 12.1404C5.34434 12.1326 5.34828 12.2028 5.31701 12.3514C5.27018 12.5702 5.25462 12.7887 5.27018 13.0076C5.30137 13.4998 5.44203 13.8669 5.69198 14.1089C5.85611 14.2732 5.96931 14.2614 6.03186 14.0739C6.07877 14.0112 6.1002 13.7809 6.09626 13.3822C6.09252 12.984 6.09831 12.7145 6.11395 12.5738C6.1765 12.1285 6.36205 11.5777 6.67058 10.9217C6.9791 10.2655 7.22335 9.91388 7.40299 9.86705C7.26234 9.64049 7.21744 9.3944 7.26825 9.12877C7.31894 8.86313 7.40111 8.63645 7.5143 8.44909C7.62746 8.26164 7.74283 8.04494 7.85989 7.7988C7.97711 7.5527 8.03568 7.33197 8.03568 7.13669C8.03568 7.0821 8.0397 7.04299 8.0475 7.01955C8.07089 6.94924 8.16857 7.03515 8.34042 7.27726C8.66852 7.7617 8.91462 8.04691 9.07871 8.13281C9.25056 8.22643 9.44186 8.22257 9.65282 8.12099C9.8637 8.01945 10.1234 7.85146 10.4321 7.61718C10.7405 7.38291 11.0042 7.21098 11.223 7.10172C11.2466 7.0938 11.2836 7.07623 11.3345 7.0489C11.3851 7.02173 11.4241 7.00207 11.4514 6.99025C11.4785 6.97859 11.5138 6.96107 11.5569 6.93759C11.5995 6.91415 11.6327 6.89462 11.6562 6.87894C11.6796 6.86322 11.7031 6.84565 11.7264 6.82611C11.7497 6.8065 11.7653 6.78712 11.7733 6.76755C11.7812 6.74801 11.7851 6.73048 11.7851 6.71481C11.7694 6.64446 11.7363 6.60144 11.6854 6.58593C11.6346 6.57033 11.5663 6.58002 11.4803 6.61528C11.3944 6.65045 11.2986 6.69736 11.1932 6.75589C11.0879 6.81446 10.9708 6.88087 10.8418 6.95511C10.713 7.02936 10.5821 7.09762 10.4493 7.16021C10.3166 7.22276 10.1759 7.27743 10.0275 7.32434C9.87905 7.37113 9.73844 7.39859 9.60566 7.40638C9.27756 7.41422 9.01595 7.32844 8.82067 7.14863C8.69569 7.03133 8.62937 6.95717 8.62145 6.92593C8.61357 6.89478 8.64878 6.88698 8.72684 6.9025C9.14885 6.95721 9.45733 6.96492 9.65266 6.92593C9.85574 6.89478 10.1291 6.80485 10.4729 6.6564C10.5433 6.62521 10.7208 6.54895 11.0062 6.42787C11.2912 6.30696 11.512 6.22294 11.6682 6.17603C11.7622 6.15255 11.8266 6.11549 11.8618 6.06472C11.8967 6.01395 11.9086 5.96704 11.8967 5.92403C11.8851 5.88113 11.8597 5.84797 11.8208 5.82454C11.7346 5.77762 11.6566 5.80894 11.5865 5.91828C11.5473 5.98859 11.4651 6.05705 11.3402 6.12337C11.2154 6.18986 11.1 6.24055 10.9946 6.27568C10.8891 6.31078 10.7544 6.35182 10.5903 6.39865C10.4261 6.44556 10.3364 6.4729 10.3207 6.48069C9.89112 6.61343 9.49271 6.67208 9.1255 6.6564C8.95361 6.64868 8.81501 6.6232 8.70961 6.58022C8.60413 6.53738 8.53177 6.4866 8.49282 6.42791C8.4537 6.36943 8.39127 6.29518 8.30533 6.20529C8.2193 6.11541 8.12162 6.03927 8.01232 5.97668C7.93422 5.93769 7.90487 5.86738 7.92445 5.76584C7.94399 5.6643 8.00452 5.55874 8.10606 5.4494C8.11386 5.44152 8.19398 5.3928 8.34625 5.30292C8.49856 5.21303 8.60601 5.12122 8.6686 5.02747C8.73875 4.91814 8.85991 4.80477 9.03175 4.68755C9.03955 4.65636 9.04546 4.57046 9.04932 4.42984C9.05318 4.28931 9.01612 4.13696 8.93801 3.97291C8.85991 3.80878 8.75434 3.72685 8.62157 3.72685C8.43404 3.71906 8.30127 3.77369 8.22316 3.8909C8.14506 4.00796 8.11001 4.15256 8.11776 4.3244C8.12568 4.47278 8.16279 4.60354 8.22907 4.7169C8.29552 4.83026 8.3561 4.88694 8.41077 4.88694C8.49663 4.87902 8.52397 4.91017 8.49273 4.98056C8.4459 5.06659 8.38331 5.12138 8.30525 5.14469C8.25041 5.16021 8.18983 5.10755 8.12355 4.98647C8.0571 4.8654 8.00637 4.71899 7.97124 4.54706C7.93615 4.37522 7.92236 4.2307 7.93028 4.1134C7.94579 3.87124 8.01019 3.63882 8.12355 3.41616C8.23691 3.19354 8.39899 3.08609 8.60983 3.0938C8.82859 3.10172 9.0045 3.23462 9.13724 3.49233C9.27018 3.75009 9.3326 4.10179 9.3248 4.54702C9.34828 4.60173 9.40878 4.62127 9.5065 4.60559C9.60398 4.58991 9.73298 4.5879 9.89309 4.59968C10.0531 4.61134 10.1683 4.6523 10.2387 4.72265C10.2466 4.72265 10.2505 4.66395 10.2505 4.54686C10.1098 3.56268 10.4574 3.03926 11.2934 2.97671C11.4181 3.00018 11.5236 3.02953 11.6094 3.06458C11.6957 3.09967 11.7871 3.15841 11.8849 3.24037C11.9828 3.32233 12.0645 3.44144 12.1309 3.59777C12.1974 3.75419 12.2502 3.94947 12.2892 4.18375V4.61725C12.2892 4.8672 12.2382 5.00786 12.1367 5.03913C11.9728 5.09376 11.8557 5.09187 11.7855 5.03322C11.7151 4.97453 11.7228 4.87114 11.8088 4.72269C11.8869 4.5274 11.8713 4.30068 11.7619 4.04293C11.6526 3.78522 11.4533 3.668 11.1644 3.69148C10.969 3.69931 10.8284 3.8048 10.7424 4.00784C10.6565 4.21096 10.6253 4.41018 10.6488 4.60551C10.6722 4.80079 10.7151 4.90233 10.7777 4.91009C10.8245 4.91801 10.9634 4.98044 11.1938 5.09766C11.4245 5.21484 11.5983 5.2851 11.7153 5.30854C12.02 5.37093 12.1935 5.46861 12.2367 5.60147C12.2796 5.7344 12.2621 5.92768 12.184 6.18153C12.1058 6.43555 12.0824 6.64433 12.1139 6.80847C12.1451 6.98052 12.2038 7.13657 12.2898 7.27718C12.3757 7.41792 12.4673 7.54671 12.565 7.66397C12.6626 7.7809 12.7777 7.99983 12.9108 8.32005C13.0434 8.64043 13.1645 9.0427 13.2738 9.52705C13.2815 9.53485 13.3107 9.56218 13.3616 9.6091C13.4124 9.65593 13.463 9.71449 13.514 9.7848C13.565 9.85515 13.6254 9.95082 13.6957 10.0719C13.766 10.1931 13.8424 10.3708 13.9244 10.6052C14.0062 10.8395 14.0826 11.1092 14.1528 11.4137C14.2388 11.7733 14.2837 12.1908 14.2876 12.6677C14.2916 13.1441 14.3227 13.4703 14.3814 13.6461C14.4402 13.8221 14.5905 13.8943 14.8326 13.863C15.1372 13.8474 15.3328 13.6833 15.4183 13.3708C15.6762 12.4646 15.4655 11.3786 14.7857 10.1132C14.5278 9.62104 14.3053 9.2968 14.1177 9.14063C14.391 9.29684 14.6724 9.58968 14.9616 10.0195C15.2506 10.4492 15.4341 10.8516 15.5122 11.2264C15.5198 11.2656 15.5414 11.3691 15.5765 11.5369C15.6116 11.7049 15.6312 11.8027 15.6349 11.8299C15.6387 11.8573 15.6546 11.9374 15.6817 12.0701C15.7092 12.203 15.7227 12.2889 15.7227 12.328C15.7227 12.3672 15.7265 12.4433 15.7345 12.5565C15.7425 12.6697 15.7404 12.7576 15.7286 12.8201C15.7168 12.8827 15.7053 12.9668 15.6935 13.072C15.6817 13.1774 15.6623 13.279 15.6349 13.3768C15.608 13.4744 15.5786 13.582 15.5473 13.699C15.9768 13.8865 16.1917 14.0504 16.1917 14.1912C16.0277 14.0583 15.7932 13.9705 15.4884 13.928C15.1836 13.8848 14.9007 13.9258 14.6389 14.0508C14.3771 14.1759 14.2423 14.3828 14.2344 14.6717C13.9532 14.6717 13.7539 14.7419 13.6369 14.8828C13.4651 15.0857 13.3754 15.361 13.3675 15.7088C13.3597 16.0563 13.3887 16.4354 13.4552 16.8452C13.5219 17.2553 13.5472 17.5423 13.5314 17.7064ZM8.62177 4.12506C8.5983 4.11734 8.5788 4.09374 8.56329 4.05475C8.56329 3.98461 8.59834 3.95707 8.66869 3.97279C8.7156 3.9883 8.76062 4.04695 8.80347 4.14849C8.84644 4.25003 8.85621 4.36725 8.83282 4.50007C8.83282 4.5235 8.82116 4.53533 8.79756 4.53512C8.71154 4.53512 8.68034 4.45706 8.70382 4.30085C8.72717 4.18367 8.69984 4.12506 8.62177 4.12506ZM11.6568 4.31267L11.6334 4.34776C11.5711 4.38675 11.5401 4.39459 11.5401 4.37123C11.5086 4.16019 11.4383 4.03911 11.3291 4.00784L11.2822 3.98444C11.2274 3.93753 11.2546 3.9102 11.3639 3.9024C11.3873 3.89456 11.4224 3.90621 11.4694 3.93749C11.5163 3.9688 11.5592 4.01765 11.5983 4.08405C11.6372 4.15054 11.6568 4.2266 11.6568 4.31267Z"
      fill="#00B2FF" />
    <path
      d="M8.92627 4.99215C8.92627 5.03907 8.94593 5.0586 8.985 5.05085C9.0162 5.05085 9.04924 5.0137 9.08449 4.9395C9.11967 4.86545 9.18029 4.82445 9.26611 4.81653V4.81641H9.14889C9.00052 4.83984 8.92627 4.89841 8.92627 4.99215Z"
      fill="#00B2FF" />
    <path
      d="M9.9458 4.85154C10.0239 4.82806 10.0924 4.84579 10.1509 4.90436C10.2094 4.96285 10.2544 4.98834 10.2857 4.98041C10.3324 4.9571 10.3442 4.92185 10.3208 4.87502C10.2583 4.77343 10.1334 4.76563 9.9458 4.85154Z"
      fill="#00B2FF" />
  </g>
  <defs>
    <clipPath id="clip0_1_876">
      <rect width="21" height="21" fill="white" />
    </clipPath>
  </defs>
</svg>