<svg width="16" height="16" viewBox="0 0 16 16" fill="none" xmlns="http://www.w3.org/2000/svg">
<path d="M11.333 7.33337H4.66634C3.92996 7.33337 3.33301 7.93033 3.33301 8.66671V12.6667C3.33301 13.4031 3.92996 14 4.66634 14H11.333C12.0694 14 12.6663 13.4031 12.6663 12.6667V8.66671C12.6663 7.93033 12.0694 7.33337 11.333 7.33337Z" stroke="#34FFAA" stroke-width="2" stroke-linecap="round" stroke-linejoin="round"/>
<path d="M7.99967 11.3333C8.36786 11.3333 8.66634 11.0349 8.66634 10.6667C8.66634 10.2985 8.36786 10 7.99967 10C7.63148 10 7.33301 10.2985 7.33301 10.6667C7.33301 11.0349 7.63148 11.3333 7.99967 11.3333Z" stroke="#34FFAA" stroke-width="2" stroke-linecap="round" stroke-linejoin="round"/>
<path d="M5.33301 7.33337V4.00004C5.33301 3.2928 5.61396 2.61452 6.11406 2.11442C6.61415 1.61433 7.29243 1.33337 7.99967 1.33337C8.70692 1.33337 9.3852 1.61433 9.88529 2.11442C10.3854 2.61452 10.6663 3.2928 10.6663 4.00004V7" stroke="#34FFAA" stroke-width="2" stroke-linecap="round" stroke-linejoin="round"/>
</svg>
