<svg width="32" height="32" viewBox="0 0 32 32" fill="none" xmlns="http://www.w3.org/2000/svg">
<path d="M23.4535 11.9749C23.4505 11.9724 23.448 11.9699 23.4445 11.9679L23.4395 11.9654L18.9145 9.70286C18.884 9.68736 18.852 9.67735 18.8195 9.66885C18.7785 9.65835 18.737 9.65186 18.695 9.65186C18.5215 9.65186 18.349 9.73886 18.256 9.89036L15.651 14.1239L18.92 19.4364L23.4675 12.0469C23.4825 12.0229 23.4755 11.9924 23.4535 11.9749ZM14.216 17.9789L18.4995 20.1204L14.216 13.1599V17.9789ZM19.143 20.4419L22.669 22.2049C23.1275 22.4344 23.4995 22.2739 23.4995 21.8464V13.3629L19.143 20.4419ZM13.4725 11.9819L9.05302 9.77236C8.97302 9.73236 8.89702 9.71336 8.82852 9.71336C8.63502 9.71336 8.49902 9.86286 8.49902 10.1144V19.6559C8.49902 19.9114 8.68602 20.2139 8.91452 20.3279L12.807 22.2739C12.907 22.3239 13.002 22.3474 13.0875 22.3474C13.3295 22.3474 13.499 22.1604 13.499 21.8459V12.0254C13.4995 12.0069 13.489 11.9899 13.4725 11.9819Z" fill="#6892B8"/>
<rect x="1" y="1" width="30" height="30" rx="5" stroke="#6892B8" stroke-width="2"/>
</svg>
