<svg width="94" height="94" viewBox="0 0 94 94" fill="none" xmlns="http://www.w3.org/2000/svg">
  <path
    d="M41.7099 27.0795C44.8643 24.7877 49.1357 24.7877 52.2901 27.0795L64.3108 35.8131C67.4652 38.1049 68.7851 42.1672 67.5802 45.8754L62.9887 60.0066C61.7838 63.7148 58.3282 66.2254 54.4292 66.2254H39.5708C35.6718 66.2254 32.2162 63.7148 31.0113 60.0066L26.4198 45.8754C25.2149 42.1672 26.5348 38.1049 29.6892 35.8131L41.7099 27.0795Z"
    stroke="url(#paint0_linear_1_473)" stroke-width="2" />
  <path opacity="0.3"
    d="M41.7099 16.0795C44.8643 13.7877 49.1357 13.7877 52.2901 16.0795L74.7724 32.4139C77.9268 34.7057 79.2467 38.768 78.0418 42.4762L69.4544 68.9058C68.2495 72.614 64.7939 75.1246 60.8948 75.1246H33.1052C29.2061 75.1246 25.7505 72.614 24.5456 68.9058L15.9582 42.4762C14.7533 38.768 16.0732 34.7057 19.2276 32.4139L41.7099 16.0795Z"
    stroke="url(#paint1_linear_1_473)" stroke-width="2" />
  <path opacity="0.1"
    d="M41.7099 5.07953C44.8643 2.78773 49.1357 2.78773 52.2901 5.07953L85.234 29.0147C88.3884 31.3065 89.7083 35.3688 88.5035 39.077L75.92 77.805C74.7151 81.5132 71.2595 84.0238 67.3605 84.0238H26.6395C22.7405 84.0238 19.2849 81.5132 18.08 77.805L5.49654 39.077C4.29167 35.3688 5.61159 31.3065 8.76598 29.0147L41.7099 5.07953Z"
    stroke="url(#paint2_linear_1_473)" stroke-width="2" />
  <path
    d="M52.9577 56C53.2457 56 53.3897 55.856 53.3897 55.568V53.048C53.3897 52.784 53.2457 52.64 52.9577 52.64H46.8377C48.1097 51.488 49.3577 50.24 50.3897 49.064C52.1657 47.024 53.1017 45.56 53.1017 43.592C53.1017 40.328 50.8217 38.528 47.4617 38.528C44.9657 38.528 43.2137 39.656 41.8937 41C41.7257 41.192 41.7257 41.384 41.8697 41.6L43.3577 43.592C43.5257 43.808 43.7417 43.832 43.9337 43.616C44.8697 42.704 45.9017 41.96 47.3177 41.96C48.8057 41.96 49.3577 42.776 49.3577 43.688C49.3577 45.08 48.1577 46.376 45.5417 48.992L41.6057 52.952C41.4617 53.096 41.3897 53.264 41.3897 53.48V55.568C41.3897 55.856 41.5577 56 41.8217 56H52.9577Z"
    fill="#0085FF" />
  <defs>
    <linearGradient id="paint0_linear_1_473" x1="47" y1="22" x2="47" y2="72" gradientUnits="userSpaceOnUse">
      <stop stop-color="#00B2FF" />
      <stop offset="1" stop-color="#0085FF" />
    </linearGradient>
    <linearGradient id="paint1_linear_1_473" x1="47" y1="11" x2="47" y2="83" gradientUnits="userSpaceOnUse">
      <stop stop-color="#00B2FF" />
      <stop offset="1" stop-color="#0085FF" />
    </linearGradient>
    <linearGradient id="paint2_linear_1_473" x1="47" y1="0" x2="47" y2="94" gradientUnits="userSpaceOnUse">
      <stop stop-color="#00B2FF" />
      <stop offset="1" stop-color="#0085FF" />
    </linearGradient>
  </defs>
</svg>