<svg width="23" height="19" viewBox="0 0 23 19" fill="none" xmlns="http://www.w3.org/2000/svg">
  <path
    d="M16.7421 6.20306C16.3327 5.97347 15.8006 5.97347 15.3504 6.20306L12.1575 7.96323L9.98795 9.11119L6.79509 10.8713C6.38575 11.1009 5.8536 11.1009 5.40333 10.8713L2.8654 9.49377C2.45606 9.26419 2.16952 8.84332 2.16952 8.38414V5.66735C2.16952 5.20818 2.41513 4.78727 2.8654 4.55768L5.36239 3.21842C5.77173 2.98884 6.30388 2.98884 6.75415 3.21842L9.25117 4.55768C9.66047 4.78727 9.94703 5.20818 9.94703 5.66735V7.42753L12.1165 6.24132V4.48116C12.1165 4.02197 11.871 3.60107 11.4207 3.37148L6.79509 0.846019C6.38575 0.616431 5.8536 0.616431 5.40333 0.846019L0.695883 3.37148C0.245606 3.60107 0 4.02197 0 4.48116V9.57035C0 10.0295 0.245606 10.4505 0.695883 10.68L5.40333 13.2055C5.81266 13.4351 6.34482 13.4351 6.79509 13.2055L9.98795 11.4836L12.1575 10.2974L15.3504 8.57546C15.7597 8.34588 16.2918 8.34588 16.7421 8.57546L19.2391 9.91472C19.6484 10.1443 19.935 10.5652 19.935 11.0244V13.7411C19.935 14.2004 19.6894 14.6213 19.2391 14.8508L16.7421 16.2284C16.3327 16.458 15.8006 16.458 15.3504 16.2284L12.8534 14.8891C12.444 14.6595 12.1575 14.2386 12.1575 13.7794V12.0193L9.98795 13.2055V14.9656C9.98795 15.4248 10.2336 15.8457 10.6838 16.0753L15.3913 18.6008C15.8006 18.8303 16.3327 18.8303 16.783 18.6008L21.4905 16.0753C21.8998 15.8457 22.1864 15.4248 22.1864 14.9656V9.87643C22.1864 9.41727 21.9408 8.9964 21.4905 8.76682L16.7421 6.20306Z"
    fill="#8247E5" />
</svg>