<svg width="94" height="94" viewBox="0 0 94 94" fill="none" xmlns="http://www.w3.org/2000/svg">
  <path
    d="M41.7099 27.0795C44.8643 24.7877 49.1357 24.7877 52.2901 27.0795L64.3108 35.8131C67.4652 38.1049 68.7851 42.1672 67.5802 45.8754L62.9887 60.0066C61.7838 63.7148 58.3282 66.2254 54.4292 66.2254H39.5708C35.6718 66.2254 32.2162 63.7148 31.0113 60.0066L26.4198 45.8754C25.2149 42.1672 26.5348 38.1049 29.6892 35.8131L41.7099 27.0795Z"
    stroke="url(#paint0_linear_1_484)" stroke-width="2" />
  <path
    d="M53.5219 50.48C53.5219 47.6 51.3619 45.632 48.7699 45.728V45.68L52.6579 41.792C52.8019 41.648 52.8739 41.48 52.8739 41.264V39.272C52.8739 38.984 52.7299 38.84 52.4659 38.84H42.4579C42.1939 38.84 42.0499 38.984 42.0499 39.272V41.816C42.0499 42.08 42.1939 42.224 42.4579 42.224H48.1939L44.3779 46.064C44.2099 46.232 44.1619 46.448 44.2579 46.64L44.8339 47.96C44.9539 48.2 45.1219 48.296 45.3619 48.224C45.9379 48.08 46.5139 48.008 46.9459 48.008C48.7939 48.008 49.7299 48.776 49.7299 50.312C49.7299 51.992 48.7459 52.832 47.1379 52.832C45.3379 52.832 44.3539 52.328 43.2739 51.632C43.0819 51.464 42.8179 51.44 42.6739 51.632L41.2579 53.624C41.0899 53.84 41.0659 54.032 41.2579 54.224C42.6259 55.4 44.3779 56.288 47.1379 56.288C51.0499 56.288 53.5219 54.224 53.5219 50.48Z"
    fill="#0085FF" />
  <path opacity="0.3"
    d="M41.7099 16.0795C44.8643 13.7877 49.1357 13.7877 52.2901 16.0795L74.7724 32.4139C77.9268 34.7057 79.2467 38.768 78.0418 42.4762L69.4544 68.9058C68.2495 72.614 64.7939 75.1246 60.8948 75.1246H33.1052C29.2061 75.1246 25.7505 72.614 24.5456 68.9058L15.9582 42.4762C14.7533 38.768 16.0732 34.7057 19.2276 32.4139L41.7099 16.0795Z"
    stroke="url(#paint1_linear_1_484)" stroke-width="2" />
  <path opacity="0.1"
    d="M41.7099 5.07953C44.8643 2.78773 49.1357 2.78773 52.2901 5.07953L85.234 29.0147C88.3884 31.3065 89.7083 35.3688 88.5035 39.077L75.92 77.805C74.7151 81.5132 71.2595 84.0238 67.3605 84.0238H26.6395C22.7405 84.0238 19.2849 81.5132 18.08 77.805L5.49654 39.077C4.29167 35.3688 5.61159 31.3065 8.76598 29.0147L41.7099 5.07953Z"
    stroke="url(#paint2_linear_1_484)" stroke-width="2" />
  <defs>
    <linearGradient id="paint0_linear_1_484" x1="47" y1="22" x2="47" y2="72" gradientUnits="userSpaceOnUse">
      <stop stop-color="#00B2FF" />
      <stop offset="1" stop-color="#0085FF" />
    </linearGradient>
    <linearGradient id="paint1_linear_1_484" x1="47" y1="11" x2="47" y2="83" gradientUnits="userSpaceOnUse">
      <stop stop-color="#00B2FF" />
      <stop offset="1" stop-color="#0085FF" />
    </linearGradient>
    <linearGradient id="paint2_linear_1_484" x1="47" y1="0" x2="47" y2="94" gradientUnits="userSpaceOnUse">
      <stop stop-color="#00B2FF" />
      <stop offset="1" stop-color="#0085FF" />
    </linearGradient>
  </defs>
</svg>