<svg width="20" height="20" viewBox="0 0 20 20" fill="none" xmlns="http://www.w3.org/2000/svg">
<path d="M10.6779 13.995L14.2204 15.0575M4.94287 5.77998L6.00537 9.32082L4.94287 5.77998Z" stroke="white" stroke-width="2" stroke-linecap="round" stroke-linejoin="round"/>
<path d="M9.73584 10.2642L14.535 5.46502" stroke="white" stroke-width="2" stroke-linecap="round" stroke-linejoin="round"/>
<path d="M4.5835 5.83338C5.27385 5.83338 5.8335 5.27374 5.8335 4.58338C5.8335 3.89303 5.27385 3.33338 4.5835 3.33338C3.89314 3.33338 3.3335 3.89303 3.3335 4.58338C3.3335 5.27374 3.89314 5.83338 4.5835 5.83338Z" stroke="white" stroke-width="2" stroke-linecap="round" stroke-linejoin="round"/>
<path d="M15.4165 5.83338C16.1069 5.83338 16.6665 5.27374 16.6665 4.58338C16.6665 3.89303 16.1069 3.33338 15.4165 3.33338C14.7261 3.33338 14.1665 3.89303 14.1665 4.58338C14.1665 5.27374 14.7261 5.83338 15.4165 5.83338Z" stroke="white" stroke-width="2" stroke-linecap="round" stroke-linejoin="round"/>
<path d="M15.4165 16.6666C16.1069 16.6666 16.6665 16.107 16.6665 15.4166C16.6665 14.7263 16.1069 14.1666 15.4165 14.1666C14.7261 14.1666 14.1665 14.7263 14.1665 15.4166C14.1665 16.107 14.7261 16.6666 15.4165 16.6666Z" stroke="white" stroke-width="2" stroke-linecap="round" stroke-linejoin="round"/>
<path d="M7.0835 16.6666C9.15456 16.6666 10.8335 14.9877 10.8335 12.9166C10.8335 10.8456 9.15456 9.16662 7.0835 9.16662C5.01243 9.16662 3.3335 10.8456 3.3335 12.9166C3.3335 14.9877 5.01243 16.6666 7.0835 16.6666Z" stroke="white" stroke-width="2" stroke-linecap="round" stroke-linejoin="round"/>
</svg>
