<svg width="32" height="32" viewBox="0 0 32 32" fill="none" xmlns="http://www.w3.org/2000/svg">
<g clip-path="url(#clip0_12500_32934)">
<path d="M14.4934 17.8557L14.2618 21.113C14.5931 21.113 14.7366 20.9707 14.9087 20.7997L16.4621 19.3152L19.6809 21.6724C20.2713 22.0014 20.6872 21.8282 20.8464 21.1293L22.9593 11.229L22.9599 11.2284C23.1471 10.3557 22.6443 10.0145 22.0691 10.2286L9.64994 14.9833C8.80235 15.3123 8.81519 15.7848 9.50585 15.9989L12.6809 16.9865L20.056 12.3717C20.4031 12.1419 20.7187 12.2691 20.4591 12.4989L14.4934 17.8557Z" fill="#6892B8"/>
</g>
<rect x="1" y="1" width="30" height="30" rx="5" stroke="#6892B8" stroke-width="2"/>
<defs>
<clipPath id="clip0_12500_32934">
<rect width="14" height="14" fill="white" transform="translate(9 9)"/>
</clipPath>
</defs>
</svg>
