<svg width="32" height="32" viewBox="0 0 32 32" fill="none" xmlns="http://www.w3.org/2000/svg">
<path d="M24 11.05C23.4 11.3 22.8 11.5 22.1 11.55C22.8 11.15 23.3 10.5 23.55 9.75C22.9 10.15 22.2 10.4 21.45 10.55C20.85 9.9 20 9.5 19.1 9.5C17.3 9.5 15.8 10.95 15.8 12.8C15.8 13.05 15.85 13.3 15.9 13.55C13.15 13.4 10.75 12.1 9.15 10.1C8.85 10.6 8.7 11.15 8.7 11.75C8.7 12.9 9.3 13.9 10.15 14.5C9.6 14.5 9.1 14.35 8.65 14.1V14.15C8.65 15.75 9.8 17.05 11.3 17.35C11 17.4 10.75 17.45 10.45 17.45C10.25 17.45 10.05 17.45 9.85 17.4C10.25 18.7 11.5 19.65 12.9 19.7C11.8 20.6 10.35 21.1 8.8 21.1C8.55 21.1 8.25 21.1 8 21.05C9.45 22 11.2 22.5 13.05 22.5C19.1 22.5 22.4 17.5 22.4 13.15C22.4 13 22.4 12.85 22.4 12.75C23 12.25 23.55 11.7 24 11.05Z" fill="#6892B8"/>
<rect x="1" y="1" width="30" height="30" rx="5" stroke="#6892B8" stroke-width="2"/>
</svg>
