<svg width="32" height="32" viewBox="0 0 32 32" fill="none" xmlns="http://www.w3.org/2000/svg">
<path d="M23.35 13.0002C23.35 13.0002 23.2 11.9502 22.75 11.5002C22.2 10.9002 21.55 10.9002 21.25 10.8502C19.15 10.7002 16 10.7002 16 10.7002C16 10.7002 12.85 10.7002 10.75 10.8502C10.45 10.9002 9.8 10.9002 9.25 11.5002C8.8 11.9502 8.65 13.0002 8.65 13.0002C8.65 13.0002 8.5 14.2002 8.5 15.4502V16.6002C8.5 17.8002 8.65 19.0502 8.65 19.0502C8.65 19.0502 8.8 20.1002 9.25 20.5502C9.8 21.1502 10.55 21.1502 10.9 21.2002C12.1 21.3002 16 21.3502 16 21.3502C16 21.3502 19.15 21.3502 21.25 21.2002C21.55 21.1502 22.2 21.1502 22.75 20.5502C23.2 20.1002 23.35 19.0502 23.35 19.0502C23.35 19.0502 23.5 17.8502 23.5 16.6002V15.4502C23.5 14.2002 23.35 13.0002 23.35 13.0002ZM14.45 17.9502V13.7502L18.5 15.8502L14.45 17.9502Z" fill="#6892B8"/>
<rect x="1" y="1" width="30" height="30" rx="5" stroke="#6892B8" stroke-width="2"/>
</svg>
