<svg width="135" height="21" viewBox="0 0 135 21" fill="none" xmlns="http://www.w3.org/2000/svg">
  <path
    d="M11.7203 20.9835C11.7208 20.968 12.0828 19.6496 12.5249 18.0538C12.9669 16.4579 13.3274 15.1503 13.3259 15.148C13.3245 15.1456 12.4732 15.5808 11.4344 16.1152L9.54534 17.0866L9.31339 17.1328C8.22171 17.3505 7.08848 17.4121 6.01519 17.3121C4.3052 17.1526 2.78046 16.5778 1.57709 15.6391C1.32594 15.4431 0.961655 15.0891 0.784784 14.8689C0.465254 14.4713 0.211556 13.9722 0.0994635 13.5208C-0.00287921 13.1087 0.000392619 13.2651 0 8.75126C0 6.02804 0.00673997 4.47075 0.0198273 4.3088C0.100772 3.3085 0.655543 2.38308 1.61563 1.64686C2.25474 1.15686 3.06145 0.722428 3.77785 0.482646C4.41095 0.270713 5.04457 0.126491 5.68369 0.0488631C6.06276 0.00289072 6.14272 -6.46506e-05 7.03889 1.02428e-06C8.06405 1.02428e-06 8.3202 0.0149749 8.87167 0.106657C9.93362 0.283322 10.9251 0.629232 11.7291 1.10367C11.9797 1.25164 12.3816 1.52662 12.5856 1.68988C12.8873 1.93117 13.2962 2.32883 13.2962 2.38078C13.2962 2.39759 14.4767 2.40324 17.999 2.40324C22.4688 2.40324 22.7013 2.40489 22.6914 2.43739C22.6858 2.45624 22.4266 3.47388 22.1156 4.6989C21.8047 5.92394 21.5453 6.9417 21.5393 6.96056C21.5291 6.99299 21.4012 6.99483 19.1664 6.99483H16.8042L16.7848 7.04858C16.7741 7.07812 16.5017 7.78743 16.1793 8.62463C15.857 9.4619 15.5969 10.1506 15.6015 10.1552C15.6059 10.1597 16.8566 9.52189 18.3806 8.73782C21.8468 6.95458 21.488 7.13454 21.4449 7.20069C21.3833 7.29498 11.7554 20.974 11.737 20.9933C11.726 21.0048 11.7197 21.0012 11.7203 20.9835ZM16.399 13.2215C18.0541 10.8701 19.4138 8.93739 19.4205 8.92661C19.4271 8.91583 19.3901 8.92857 19.3381 8.9551C19.2861 8.98149 18.1583 9.5627 16.8316 10.2467C15.5051 10.9305 14.4128 11.4876 14.4042 11.4845C14.3957 11.4815 14.8278 10.3382 15.3645 8.9439L16.34 6.40888L18.6773 6.40389L21.0146 6.3989L21.2826 5.34383L21.7132 3.64876L21.8757 3.00889L15.4883 3.00903L9.10082 3.00916L8.67113 4.70403L8.24143 6.39883L10.5801 6.40869L12.9188 6.41841L11.7272 11.1077C11.0717 13.6867 10.5383 15.7998 10.5415 15.8033C10.5448 15.8067 11.4035 15.3689 12.4498 14.8303C13.4961 14.2918 14.3548 13.8537 14.358 13.857C14.3612 13.8602 14.1368 14.6843 13.8592 15.6883C13.5817 16.6923 13.3546 17.5183 13.3546 17.5239C13.3546 17.5295 13.3625 17.5257 13.3721 17.5154C13.3818 17.5052 14.7439 15.573 16.399 13.2215ZM7.94255 16.6182C8.41127 16.5725 8.8034 16.5054 9.3334 16.3802C9.49344 16.3424 9.64879 16.3151 9.67873 16.3195C9.71636 16.3251 9.73588 16.318 9.74203 16.2968C9.79946 16.0989 10.2612 14.2392 10.2545 14.2325C10.2496 14.2276 10.123 14.2588 9.97321 14.302C8.61811 14.6922 7.01287 14.7979 5.53822 14.5942C4.00635 14.3825 2.59973 13.8001 1.5318 12.9355C1.26227 12.7172 0.887125 12.3418 0.750096 12.153C0.699386 12.0832 0.65345 12.0217 0.648018 12.0163C0.642652 12.0109 0.642325 12.2571 0.647233 12.5633C0.655609 13.0815 0.659666 13.134 0.706456 13.317C0.882151 14.0058 1.26443 14.567 1.91081 15.0852C3.03986 15.9902 4.46199 16.4996 6.2683 16.6458C6.5748 16.6706 7.57455 16.6543 7.94255 16.6182ZM7.33903 13.9894C8.30977 13.9496 9.1623 13.8023 9.95733 13.5369C10.1946 13.4578 10.3878 13.4037 10.4179 13.4081C10.4696 13.4158 10.4698 13.4156 10.5606 13.0628C10.8943 11.7678 11.0516 11.146 11.0471 11.1406C11.0442 11.1373 10.9468 11.1734 10.8306 11.2209C10.5129 11.351 10.3069 11.4243 10.0416 11.5014C9.35417 11.7014 8.91511 11.7856 8.09832 11.8741C7.64639 11.923 6.48123 11.9225 5.99576 11.8733C4.19625 11.6905 2.71018 11.1123 1.47265 10.1133C1.26731 9.94756 0.855907 9.52784 0.726412 9.352L0.642063 9.23748V9.76227C0.642063 10.0509 0.65129 10.3443 0.662348 10.4141C0.696834 10.6308 0.77241 10.9049 0.846947 11.0833C1.15515 11.8212 1.91291 12.5532 2.92227 13.0885C3.85513 13.5831 5.05321 13.8993 6.32654 13.9869C6.67636 14.011 6.8054 14.0113 7.33903 13.9894ZM8.03984 11.1688C8.92357 11.056 9.34529 10.9652 10.0061 10.7456C10.3315 10.6373 10.6218 10.5149 10.9858 10.3324C11.1134 10.2684 11.2305 10.2215 11.2486 10.2274C11.2768 10.2363 11.3171 10.0962 11.544 9.19849C11.6887 8.62701 11.8097 8.14338 11.8132 8.12385C11.8184 8.09375 11.8037 8.09767 11.7163 8.14933C11.3674 8.35583 10.745 8.63884 10.3374 8.77632C9.46266 9.07144 8.88531 9.18428 7.85497 9.26184C7.49998 9.28858 6.59594 9.2883 6.26522 9.26135C5.13664 9.16937 4.11661 8.93606 3.31652 8.58676C2.57238 8.26196 1.92874 7.87157 1.43051 7.4431C1.16974 7.21882 0.734785 6.75873 0.665032 6.63336C0.648541 6.60374 0.643111 6.70921 0.642652 7.07056C0.642129 7.5026 0.646579 7.56924 0.690748 7.78806C0.808272 8.37074 1.0619 8.82175 1.54731 9.31154C2.60051 10.3741 4.19016 11.0217 6.19043 11.2028C6.23859 11.2072 6.61969 11.2083 7.03728 11.2053C7.58791 11.2014 7.86337 11.1913 8.03984 11.1688ZM7.54286 8.57703C8.32719 8.54021 9.1167 8.41736 9.66544 8.24663C9.73476 8.22493 9.8045 8.20456 9.87465 8.18559C10.0484 8.14128 10.524 7.95683 10.7939 7.82922C11.2055 7.63462 11.6541 7.37114 11.9334 7.15995C11.9923 7.11543 12.0504 7.08246 12.0624 7.08659C12.0745 7.09072 12.0886 7.07189 12.0938 7.04452L12.1032 6.99497L9.76309 6.99004L7.42297 6.98505L7.99102 4.7479C8.18506 3.98434 8.37881 3.22071 8.57236 2.45703L8.58565 2.40344L10.4463 2.39845L12.307 2.39345L12.1835 2.2933C11.4081 1.6648 10.5073 1.2203 9.44161 0.940464C8.09273 0.586347 6.20195 0.569402 4.85101 0.899353C4.42848 1.00253 3.95728 1.14103 3.76672 1.21807C3.25998 1.42285 2.94903 1.58119 2.54241 1.84133C1.9063 2.24825 1.49804 2.62942 1.16791 3.12488C0.584349 4.00046 0.56884 5.15305 1.12832 6.06672C1.46597 6.61832 2.11524 7.19159 2.86913 7.60396C3.78171 8.1032 4.83799 8.41995 5.986 8.53881C6.55759 8.59796 6.91101 8.60664 7.54286 8.57703ZM45.3446 10.8111V7.16184H46.8277V14.4603H45.3446V10.8111ZM50.2245 10.8111V7.16184H50.978L51.7314 7.16191L53.382 9.44328L55.0325 11.7246L55.045 9.44328L55.0574 7.16184H56.588L56.5757 10.799L56.5635 14.4362H55.0364L53.3839 12.1853L51.7314 9.9344L51.7191 12.1974L51.7066 14.4603H50.2245V10.8111ZM61.4194 11.5553V8.65039H59.1708V7.16184H65.2468V8.65039H62.9504V14.4603H61.4194V11.5553ZM67.9738 10.8111V7.16184H73.3323V8.69841H69.5048V10.1376L71.1912 10.1503L72.8776 10.1629L72.8909 10.8471L72.9042 11.5313H69.5048V12.9718H73.3323V14.4603H67.9738V10.8111ZM76.3463 10.8111V7.16184H77.8768V12.9718H81.4176V14.4603H76.3463V10.8111ZM84.1442 10.8111V7.16184H89.5022V8.65039H85.6753V10.1388H89.0238V11.5793H85.6753V12.9707L87.5772 12.9832L89.4784 12.9958L89.4917 13.7281L89.505 14.4603H84.1442V10.8111ZM95.1239 14.386C94.6931 14.2935 94.0048 13.953 93.6501 13.6575C93.0633 13.1682 92.6163 12.4978 92.4393 11.8434C92.3197 11.3992 92.2973 10.4741 92.3946 9.9932C92.6639 8.65697 93.7557 7.54047 95.0855 7.23975C95.5205 7.14126 96.4061 7.13832 96.8097 7.23387C97.4049 7.37478 98.0883 7.76685 98.5192 8.21443L98.7088 8.41169L98.187 8.93711L97.6652 9.46253L97.4462 9.25715C97.009 8.84667 96.5124 8.65032 95.9123 8.65032C95.3219 8.65032 94.812 8.88475 94.3748 9.35641C94.1062 9.6467 93.9894 9.86867 93.8859 10.2859C93.7537 10.8214 93.8033 11.4227 94.0194 11.8963C94.1684 12.2223 94.6042 12.687 94.9435 12.8822C95.5702 13.2417 96.7754 13.1796 97.4483 12.7532L97.6358 12.6344V11.5312H95.9129V10.3295L97.5043 10.3421L99.0949 10.3548L99.1075 11.8461L99.1201 13.3374L98.7962 13.5719C98.3562 13.8909 97.7379 14.1954 97.2769 14.32C96.7698 14.4572 95.6192 14.4924 95.1239 14.386ZM102.18 10.8111V7.16184H104.144C106.006 7.16184 106.122 7.16695 106.402 7.2618C106.827 7.40537 107.054 7.55293 107.389 7.903C108.048 8.59222 108.26 9.53547 107.963 10.4602C107.799 10.9731 107.426 11.4289 106.885 11.7802C106.719 11.8884 106.582 11.9851 106.582 11.9952C106.582 12.0093 108.141 14.1128 108.365 14.4003C108.402 14.4479 108.215 14.4599 107.461 14.4583L106.51 14.4565L105.655 13.3061L104.801 12.1556H103.664V14.4604H102.18V10.8111ZM105.673 10.9027C106.125 10.8053 106.555 10.3628 106.612 9.93552C106.674 9.47093 106.39 8.96728 105.944 8.75042C105.755 8.65844 105.655 8.65039 104.701 8.65039H103.664V10.9551H104.547C105.032 10.9551 105.539 10.9315 105.673 10.9027ZM110.286 14.3763C110.303 14.3301 111.011 12.6885 111.858 10.7285L113.399 7.16485L114.239 7.16345L115.079 7.16198L116.626 10.7271C117.477 12.688 118.184 14.3308 118.196 14.3775C118.218 14.457 118.164 14.4619 117.392 14.4495L116.564 14.4364L116.199 13.5962L115.835 12.7558L114.252 12.7432L112.669 12.7306L112.347 13.4634C112.17 13.8665 112.004 14.2557 111.978 14.3284L111.931 14.4605H111.093C110.316 14.4605 110.258 14.4542 110.286 14.3763ZM114.827 10.439C114.577 9.86454 114.349 9.33359 114.322 9.2589C114.295 9.18428 114.256 9.14109 114.236 9.16286C114.197 9.205 113.232 11.4087 113.232 11.4556C113.232 11.4708 113.693 11.4832 114.257 11.4832H115.282L114.827 10.439ZM120.6 10.8092V7.15792L122.645 7.17192L124.69 7.18585L125.06 7.36309C125.961 7.7952 126.487 8.63219 126.49 9.6397C126.491 10.1397 126.438 10.3772 126.234 10.7858C126.045 11.1654 125.502 11.6958 125.093 11.9018C124.676 12.1115 124.341 12.1547 123.123 12.1551H122.083V14.4598H120.6V10.8092ZM124.283 10.8521C124.732 10.6525 125.012 10.2457 125.016 9.78817C125.018 9.33835 124.795 8.9817 124.374 8.76806C124.15 8.65396 124.111 8.65039 123.113 8.65039H122.083V10.9647L123.1 10.9456C123.882 10.9311 124.155 10.9095 124.283 10.8521ZM128.924 10.8111V7.16184H130.455V10.1388H133.469V7.16184H135V14.4603H133.469V11.5313H130.455V14.4603H128.924V10.8111ZM28.7221 14.3359C27.3576 14.0302 26.2615 12.9305 25.9853 11.5899C25.8791 11.075 25.9171 10.0362 26.0563 9.64649C26.269 9.05121 26.4992 8.69092 26.9724 8.21268C27.3678 7.8134 27.4912 7.72093 27.8872 7.52759C28.5129 7.22204 28.8921 7.14826 29.7003 7.17458C30.2358 7.19201 30.4059 7.21665 30.6958 7.31892C31.1798 7.48972 31.6498 7.78141 32.0315 8.14793L32.3549 8.45838L31.8196 8.9957L31.2843 9.53288L31.0468 9.29082C30.6221 8.8578 30.1198 8.64976 29.502 8.65095C28.9081 8.65207 28.5361 8.80775 28.0808 9.24588C27.5846 9.72335 27.3741 10.2598 27.4163 10.9387C27.4584 11.6152 27.8299 12.2235 28.4432 12.6196C29.2245 13.1243 30.3603 12.9827 31.0288 12.2972L31.2808 12.0388L31.8036 12.5618L32.3263 13.0848L32.1974 13.2339C31.8333 13.6549 31.2479 14.0399 30.6528 14.2496C30.1953 14.4109 29.246 14.4533 28.7221 14.3359ZM37.7138 14.3441C36.8903 14.1533 36.2825 13.7775 35.6925 13.0946C35.4013 12.7576 35.0943 12.1707 34.9752 11.7233C34.86 11.2909 34.8631 10.2359 34.9807 9.80714C35.1699 9.11785 35.6796 8.35065 36.2441 7.90566C36.6038 7.62195 37.104 7.37758 37.5688 7.25823C38.0962 7.12292 38.9676 7.12418 39.4597 7.26096C41.1628 7.73458 42.3176 9.45952 42.0948 11.1968C42.0325 11.6829 41.8457 12.256 41.6261 12.6356C41.3862 13.05 40.7669 13.6642 40.3295 13.9215C39.753 14.2606 39.3492 14.3722 38.6228 14.3928C38.204 14.4047 37.9072 14.3889 37.7138 14.3441ZM39.0402 12.8576C39.5895 12.7279 40.1475 12.2679 40.4264 11.7152C40.701 11.1711 40.7082 10.4395 40.4447 9.86881C40.292 9.53792 39.8541 9.07942 39.5218 8.90246C38.953 8.5995 38.1853 8.5687 37.6367 8.82693C36.3142 9.44923 35.9656 11.1485 36.9387 12.2294C37.4619 12.8106 38.2464 13.0451 39.0402 12.8576Z"
    fill="black" />
</svg>