<svg width="69" height="15" viewBox="0 0 69 15" fill="none" xmlns="http://www.w3.org/2000/svg">
  <path
    d="M26.7753 4.7814C27.1952 5.03443 27.5505 5.38233 27.7765 5.85675C28.0349 6.33117 28.1641 6.90049 28.1641 7.53301C28.1641 8.16559 28.0349 8.70329 27.7442 9.17769C27.4858 9.65209 27.0983 10 26.6138 10.2214C26.1293 10.4744 25.5479 10.601 24.9343 10.601C24.579 10.601 24.256 10.5377 23.933 10.4112C23.61 10.3163 23.3194 10.1265 23.0933 9.90515V13.1944H21.22V4.52838H22.8349L22.9964 5.2242C23.7069 4.65489 24.4821 4.37024 25.2896 4.37024C25.8386 4.37024 26.3554 4.49675 26.7753 4.7814ZM25.7418 8.70329C26.0647 8.41865 26.2262 8.03906 26.2262 7.56466C26.2262 7.09025 26.0647 6.71073 25.774 6.39443C25.4834 6.07815 25.0958 5.95164 24.6759 5.95164C24.3206 5.95164 23.9976 6.01489 23.7392 6.17303C23.4808 6.29954 23.2871 6.52094 23.1256 6.80561V8.22882C23.2224 8.51353 23.4163 8.73487 23.6424 8.89305C23.9008 9.05116 24.1914 9.14604 24.5467 9.14604C25.0312 9.14604 25.4187 8.98793 25.7418 8.70329Z"
    fill="white" />
  <path
    d="M29.2622 5.88813C29.5529 5.44534 29.9404 5.0658 30.4572 4.81278C30.974 4.55976 31.5554 4.40161 32.2013 4.40161C32.8473 4.40161 33.4286 4.52813 33.9454 4.81278C34.4299 5.0658 34.8175 5.44534 35.1082 5.91975C35.3988 6.39417 35.528 6.90023 35.528 7.50116C35.528 8.1021 35.3988 8.60815 35.1082 9.08255C34.8175 9.55695 34.4622 9.93647 33.9454 10.1895C33.4609 10.4425 32.8473 10.6007 32.2013 10.6007C31.5554 10.6007 30.974 10.4742 30.4572 10.2212C29.9404 9.96812 29.5529 9.62025 29.2622 9.14578C29.0038 8.67138 28.8423 8.13368 28.8423 7.50116C28.8423 6.90023 29.0038 6.36255 29.2622 5.88813ZM31.1678 8.63973C31.4262 8.95602 31.7815 9.08255 32.2013 9.08255C32.6212 9.08255 32.9765 8.92444 33.2349 8.63973C33.4933 8.35509 33.6225 7.94392 33.6225 7.50116C33.6225 7.02676 33.4933 6.6472 33.2349 6.36255C32.9441 6.04627 32.6212 5.88813 32.1691 5.88813C31.7491 5.88813 31.4262 6.04627 31.1355 6.33092C30.8771 6.6472 30.7479 7.02676 30.7479 7.50116C30.7479 7.94392 30.8771 8.32351 31.1678 8.63973Z"
    fill="white" />
  <path d="M38.5654 0.0374756V10.4431H36.6921V0.0374756H38.5654Z" fill="white" />
  <path
    d="M46.2499 4.68652L42.4387 13.2261H40.6301L42.0511 10.1582L39.3381 4.68652H41.4698L43.0201 8.10232L44.5705 4.68652H46.2499Z"
    fill="white" />
  <path
    d="M53.4213 4.68627V10.4425C53.4213 10.9802 53.2598 11.4863 52.9368 11.9291C52.6138 12.3719 52.1939 12.7198 51.6448 12.9728C51.0958 13.2258 50.5144 13.3523 49.8685 13.3523C49.384 13.3523 48.9641 13.2891 48.6088 13.1942C48.2535 13.0677 47.9628 12.9411 47.7367 12.8147C47.4784 12.6565 47.22 12.4667 46.9293 12.2137L48.0275 10.9486C48.2859 11.2016 48.5765 11.3914 48.8349 11.5179C49.0933 11.6444 49.4486 11.7393 49.8362 11.7393C50.3206 11.7393 50.7082 11.6128 51.0312 11.3914C51.3542 11.17 51.5156 10.8221 51.5156 10.4109V9.5886C51.3219 9.87324 51.0635 10.1263 50.6759 10.3161C50.2883 10.5058 49.8362 10.6007 49.3194 10.6007C48.8026 10.6007 48.2859 10.4742 47.8336 10.1895C47.3815 9.93648 47.0262 9.55695 46.7355 9.08255C46.4771 8.60815 46.3157 8.1021 46.3157 7.53281C46.3157 6.96346 46.4449 6.4258 46.7355 5.95138C47.0262 5.47697 47.3815 5.09743 47.8659 4.81278C48.3181 4.52813 48.8026 4.40161 49.3194 4.40161C49.8038 4.40161 50.2237 4.46487 50.6113 4.59138C50.9989 4.7179 51.2896 4.90766 51.4834 5.12906L51.6772 4.68627H53.4213ZM51.5156 8.22863V6.80535C51.3864 6.52069 51.1927 6.29929 50.902 6.14115C50.6113 5.98301 50.2883 5.88813 49.9007 5.88813C49.4486 5.88813 49.061 6.04627 48.738 6.33092C48.4151 6.61557 48.2535 6.99511 48.2535 7.46952C48.2535 7.91234 48.4151 8.32351 48.738 8.63973C49.061 8.95602 49.4486 9.1142 49.9007 9.1142C50.6436 9.08255 51.1927 8.79791 51.5156 8.22863Z"
    fill="white" />
  <path
    d="M54.9719 5.88838C55.2625 5.41396 55.6501 5.06605 56.1669 4.7814C56.6837 4.52838 57.2651 4.37024 57.9111 4.37024C58.557 4.37024 59.1384 4.49675 59.6551 4.7814C60.1396 5.03443 60.5272 5.41396 60.8179 5.88838C61.0763 6.3628 61.2378 6.86884 61.2378 7.46978C61.2378 8.07071 61.1086 8.57676 60.8179 9.05116C60.5595 9.52556 60.1719 9.90515 59.6551 10.1581C59.1706 10.4112 58.557 10.5693 57.9111 10.5693C57.2651 10.5693 56.6837 10.4428 56.1669 10.1898C55.6501 9.93673 55.2625 9.58886 54.9719 9.11446C54.6812 8.63999 54.552 8.10236 54.552 7.43813C54.552 6.90049 54.6812 6.3628 54.9719 5.88838ZM56.8452 8.63999C57.1036 8.95628 57.4588 9.08281 57.8787 9.08281C58.2986 9.08281 58.6539 8.92463 58.9123 8.63999C59.1706 8.35535 59.2998 7.94418 59.2998 7.50142C59.2998 7.02696 59.1706 6.64745 58.9123 6.3628C58.6539 6.07815 58.2986 5.92001 57.8787 5.92001C57.4588 5.92001 57.1359 6.07815 56.8452 6.3628C56.5545 6.64745 56.4253 7.05861 56.4253 7.50142C56.4576 7.94418 56.5868 8.3237 56.8452 8.63999Z"
    fill="white" />
  <path
    d="M67.8594 4.87603C68.247 5.19231 68.4081 5.60347 68.4402 6.10953V10.4425H66.5349V6.80535C66.5026 6.23604 66.212 5.95138 65.6628 5.95138C65.243 5.95138 64.8877 6.14115 64.6293 6.55231C64.371 6.96346 64.2418 7.46951 64.2418 8.07045V10.4425H62.3684V4.68627H64.0802L64.2094 5.60347C64.4355 5.22394 64.7262 4.93929 65.1138 4.7179C65.5013 4.4965 65.9536 4.40161 66.4703 4.40161C67.0193 4.40161 67.5038 4.55976 67.8594 4.87603Z"
    fill="white" />
  <path
    d="M13.21 4.59197C12.887 4.4022 12.4671 4.4022 12.1119 4.59197L9.59258 6.04686L7.88077 6.99571L5.36152 8.45057C5.03854 8.64033 4.61866 8.64033 4.26338 8.45057L2.26088 7.31194C1.9379 7.12218 1.71181 6.7743 1.71181 6.39476V4.14917C1.71181 3.76964 1.9056 3.42173 2.26088 3.23196L4.23108 2.12499C4.55406 1.93522 4.97394 1.93522 5.32922 2.12499L7.29943 3.23196C7.62238 3.42173 7.84849 3.76964 7.84849 4.14917V5.60406L9.5603 4.6236V3.16871C9.5603 2.78917 9.36654 2.44126 9.01124 2.2515L5.36152 0.164054C5.03854 -0.0257134 4.61866 -0.0257134 4.26338 0.164054L0.549072 2.2515C0.19379 2.44126 0 2.78917 0 3.16871V7.37524C0 7.75476 0.19379 8.1027 0.549072 8.29246L4.26338 10.3799C4.58636 10.5697 5.00624 10.5697 5.36152 10.3799L7.88077 8.95662L9.59258 7.97617L12.1119 6.5529C12.4348 6.36313 12.8547 6.36313 13.21 6.5529L15.1802 7.65988C15.5032 7.84964 15.7293 8.19758 15.7293 8.5771V10.8226C15.7293 11.2022 15.5355 11.5501 15.1802 11.7399L13.21 12.8785C12.887 13.0683 12.4671 13.0683 12.1119 12.8785L10.1417 11.7715C9.81869 11.5818 9.59258 11.2338 9.59258 10.8543V9.39944L7.88077 10.3799V11.8348C7.88077 12.2143 8.0746 12.5622 8.42983 12.752L12.1442 14.8394C12.4671 15.0292 12.887 15.0292 13.2423 14.8394L16.9566 12.752C17.2796 12.5622 17.5057 12.2143 17.5057 11.8348V7.62823C17.5057 7.24871 17.3119 6.90083 16.9566 6.71107L13.21 4.59197Z"
    fill="#8247E5" />
</svg>