<svg width="96" height="21" viewBox="0 0 96 21" fill="none" xmlns="http://www.w3.org/2000/svg">
  <g clip-path="url(#clip0_1_2020)">
    <path
      d="M37.5064 6.68948C38.0946 7.04391 38.5923 7.53125 38.9089 8.1958C39.2708 8.86036 39.4518 9.65786 39.4518 10.5439C39.4518 11.43 39.2708 12.1832 38.8637 12.8477C38.5017 13.5122 37.9588 13.9996 37.2801 14.3097C36.6016 14.6642 35.7871 14.8414 34.9276 14.8414C34.4299 14.8414 33.9774 14.7527 33.525 14.5756C33.0726 14.4427 32.6654 14.1768 32.3487 13.8667V18.4743H29.7246V6.33504H31.9867L32.213 7.30973C33.2083 6.51226 34.2941 6.11353 35.4252 6.11353C36.1943 6.11353 36.9182 6.29074 37.5064 6.68948ZM36.0586 12.1832C36.511 11.7845 36.7372 11.2527 36.7372 10.5882C36.7372 9.92367 36.511 9.39204 36.1039 8.94897C35.6967 8.50593 35.1538 8.32872 34.5656 8.32872C34.0679 8.32872 33.6155 8.41733 33.2535 8.63884C32.8916 8.81606 32.6202 9.12619 32.394 9.52495V11.5186C32.5296 11.9174 32.8011 12.2274 33.1179 12.449C33.4798 12.6705 33.887 12.8034 34.3847 12.8034C35.0633 12.8034 35.6062 12.5819 36.0586 12.1832Z"
      fill="black" />
    <path
      d="M40.9898 8.23902C41.397 7.61877 41.9398 7.08712 42.6637 6.73269C43.3876 6.37826 44.202 6.15674 45.1069 6.15674C46.0118 6.15674 46.8261 6.33396 47.55 6.73269C48.2287 7.08712 48.7716 7.61877 49.1787 8.28332C49.5859 8.94788 49.7669 9.65676 49.7669 10.4985C49.7669 11.3403 49.5859 12.0492 49.1787 12.7137C48.7716 13.3782 48.2739 13.9099 47.55 14.2643C46.8713 14.6187 46.0118 14.8403 45.1069 14.8403C44.202 14.8403 43.3876 14.6631 42.6637 14.3087C41.9398 13.9542 41.397 13.4669 40.9898 12.8023C40.6278 12.1377 40.4016 11.3845 40.4016 10.4985C40.4016 9.65676 40.6278 8.90358 40.9898 8.23902ZM43.6591 12.0934C44.0211 12.5365 44.5188 12.7137 45.1069 12.7137C45.695 12.7137 46.1927 12.4922 46.5547 12.0934C46.9166 11.6947 47.0976 11.1187 47.0976 10.4985C47.0976 9.834 46.9166 9.30231 46.5547 8.90358C46.1474 8.46054 45.695 8.23902 45.0617 8.23902C44.4734 8.23902 44.0211 8.46054 43.6139 8.85927C43.252 9.30231 43.071 9.834 43.071 10.4985C43.071 11.1187 43.252 11.6505 43.6591 12.0934Z"
      fill="black" />
    <path d="M54.0205 0.043457V14.6194H51.3965V0.043457H54.0205Z" fill="black" />
    <path
      d="M64.7876 6.55591L59.449 18.5179H56.9154L58.906 14.2205L55.1057 6.55591H58.0917L60.2634 11.3407L62.4351 6.55591H64.7876Z"
      fill="black" />
    <path
      d="M74.8315 6.55548V14.6187C74.8315 15.3719 74.6054 16.0808 74.1529 16.7011C73.7005 17.3213 73.1123 17.8087 72.3432 18.1631C71.574 18.5175 70.7597 18.6947 69.8549 18.6947C69.1762 18.6947 68.5881 18.6061 68.0904 18.4732C67.5927 18.296 67.1855 18.1187 66.8688 17.9416C66.5069 17.72 66.145 17.4542 65.7377 17.0998L67.276 15.3276C67.638 15.6821 68.0451 15.9479 68.4071 16.1251C68.769 16.3023 69.2667 16.4352 69.8096 16.4352C70.4882 16.4352 71.0311 16.258 71.4836 15.9479C71.936 15.6377 72.1622 15.1505 72.1622 14.5745V13.4226C71.8908 13.8213 71.5288 14.1758 70.9859 14.4416C70.443 14.7074 69.8096 14.8403 69.0857 14.8403C68.3619 14.8403 67.638 14.6631 67.0045 14.2643C66.3712 13.9099 65.8735 13.3782 65.4663 12.7137C65.1044 12.0492 64.8782 11.3403 64.8782 10.5429C64.8782 9.74533 65.0591 8.99219 65.4663 8.32763C65.8735 7.66307 66.3712 7.13143 67.0497 6.73269C67.6832 6.33396 68.3619 6.15674 69.0857 6.15674C69.7643 6.15674 70.3525 6.24535 70.8954 6.42256C71.4383 6.59978 71.8456 6.86561 72.117 7.17573L72.3885 6.55548H74.8315ZM72.1622 11.5175V9.52385C71.9812 9.1251 71.7098 8.81498 71.3026 8.59345C70.8954 8.37193 70.443 8.23902 69.9001 8.23902C69.2667 8.23902 68.7238 8.46054 68.2713 8.85927C67.8189 9.25801 67.5927 9.78966 67.5927 10.4542C67.5927 11.0745 67.8189 11.6505 68.2713 12.0934C68.7238 12.5365 69.2667 12.758 69.9001 12.758C70.9407 12.7137 71.7098 12.315 72.1622 11.5175Z"
      fill="black" />
    <path
      d="M77.0037 8.24011C77.4108 7.57555 77.9537 7.08821 78.6776 6.68948C79.4015 6.33504 80.216 6.11353 81.1208 6.11353C82.0257 6.11353 82.84 6.29074 83.5639 6.68948C84.2426 7.04391 84.7855 7.57555 85.1927 8.24011C85.5546 8.90467 85.7808 9.61353 85.7808 10.4553C85.7808 11.2971 85.5998 12.0059 85.1927 12.6705C84.8307 13.335 84.2878 13.8667 83.5639 14.2211C82.8852 14.5756 82.0257 14.7971 81.1208 14.7971C80.216 14.7971 79.4015 14.6198 78.6776 14.2654C77.9537 13.911 77.4108 13.4237 77.0037 12.7591C76.5965 12.0945 76.4155 11.3414 76.4155 10.411C76.4155 9.65786 76.5965 8.90467 77.0037 8.24011ZM79.6278 12.0945C79.9898 12.5376 80.4874 12.7148 81.0755 12.7148C81.6637 12.7148 82.1613 12.4932 82.5233 12.0945C82.8852 11.6958 83.0662 11.1198 83.0662 10.4996C83.0662 9.83501 82.8852 9.3034 82.5233 8.90467C82.1613 8.50593 81.6637 8.28441 81.0755 8.28441C80.4874 8.28441 80.035 8.50593 79.6278 8.90467C79.2206 9.3034 79.0396 9.87934 79.0396 10.4996C79.0849 11.1198 79.2659 11.6515 79.6278 12.0945Z"
      fill="black" />
    <path
      d="M95.0562 6.8213C95.5992 7.26433 95.8248 7.84029 95.8697 8.54915V14.6187H93.2008V9.52385C93.1556 8.72636 92.7485 8.32762 91.9793 8.32762C91.3911 8.32762 90.8935 8.59345 90.5316 9.1694C90.1696 9.74533 89.9886 10.4542 89.9886 11.296V14.6187H87.3645V6.55548H89.7624L89.9433 7.84028C90.2601 7.30864 90.6672 6.90991 91.2101 6.59978C91.7531 6.28965 92.3865 6.15674 93.1104 6.15674C93.8793 6.15674 94.5581 6.37826 95.0562 6.8213Z"
      fill="black" />
    <path
      d="M18.5043 6.42363C18.0518 6.1578 17.4637 6.1578 16.9661 6.42363L13.4371 8.46161L11.0392 9.79075L7.51031 11.8287C7.05788 12.0945 6.46973 12.0945 5.97206 11.8287L3.167 10.2337C2.71457 9.9679 2.39787 9.4806 2.39787 8.94895V5.80337C2.39787 5.27173 2.66933 4.78439 3.167 4.51856L5.92681 2.96793C6.37924 2.70211 6.9674 2.70211 7.46507 2.96793L10.2249 4.51856C10.6773 4.78439 10.994 5.27173 10.994 5.80337V7.84135L13.3919 6.46793V4.42996C13.3919 3.89831 13.1205 3.41097 12.6228 3.14514L7.51031 0.221096C7.05788 -0.0447272 6.46973 -0.0447272 5.97206 0.221096L0.769129 3.14514C0.271457 3.41097 0 3.89831 0 4.42996V10.3224C0 10.854 0.271457 11.3414 0.769129 11.6072L5.97206 14.5312C6.42448 14.7971 7.01264 14.7971 7.51031 14.5312L11.0392 12.5375L13.4371 11.1641L16.9661 9.17046C17.4185 8.90464 18.0066 8.90464 18.5043 9.17046L21.2641 10.7211C21.7165 10.9869 22.0332 11.4743 22.0332 12.0059V15.1514C22.0332 15.6832 21.7618 16.1705 21.2641 16.4363L18.5043 18.0312C18.0518 18.2971 17.4637 18.2971 16.9661 18.0312L14.2063 16.4806C13.7538 16.2148 13.4371 15.7274 13.4371 15.1958V13.1578L11.0392 14.5312V16.5692C11.0392 17.1008 11.3107 17.5882 11.8083 17.854L17.0113 20.778C17.4637 21.0439 18.0518 21.0439 18.5495 20.778L23.7525 17.854C24.2049 17.5882 24.5216 17.1008 24.5216 16.5692V10.6768C24.5216 10.1451 24.2501 9.65784 23.7525 9.39203L18.5043 6.42363Z"
      fill="#8247E5" />
  </g>
  <defs>
    <clipPath id="clip0_1_2020">
      <rect width="95.8696" height="21" fill="white" />
    </clipPath>
  </defs>
</svg>