<svg width="115" height="35" viewBox="0 0 115 35" fill="none" xmlns="http://www.w3.org/2000/svg">
  <path
    d="M50.5003 16.3351L45.626 6.24761C45.1466 5.25563 44.142 4.62533 43.0403 4.62533V4.62533C42.2473 4.62533 41.6045 5.26818 41.6045 6.06117V24.7366C41.6045 25.3271 42.0831 25.8057 42.6736 25.8057V25.8057C43.8545 25.8057 44.8118 24.8484 44.8118 23.6675V11.1005L48.5897 18.9186C48.9439 19.6516 49.6862 20.1173 50.5003 20.1173V20.1173C51.3143 20.1173 52.0567 19.6516 52.4109 18.9186L56.1887 11.1005V23.6675C56.1887 24.8484 57.146 25.8057 58.3269 25.8057V25.8057C58.9174 25.8057 59.396 25.3271 59.396 24.7366V6.06117C59.396 5.26818 58.7532 4.62533 57.9602 4.62533V4.62533C56.8585 4.62533 55.8539 5.25563 55.3746 6.24761L50.5003 16.3351Z"
    fill="url(#paint0_linear_1_774)" />
  <path
    d="M76.1628 24.2286C76.4925 25.1731 77.3835 25.8057 78.3839 25.8057V25.8057C79.1941 25.8057 79.7617 25.0057 79.4941 24.2409L73.1784 6.19608C72.8491 5.25528 71.9612 4.62533 70.9644 4.62533V4.62533C69.9677 4.62533 69.0798 5.25528 68.7505 6.19608L62.4348 24.2409C62.1671 25.0057 62.7347 25.8057 63.545 25.8057V25.8057C64.5454 25.8057 65.4363 25.1731 65.766 24.2286L67.0007 20.6922H74.9282L76.1628 24.2286ZM68.0294 17.6967L70.9644 9.28502L73.8994 17.6967H68.0294Z"
    fill="url(#paint1_linear_1_774)" />
  <path
    d="M89.0044 26.1083C93.4221 26.1083 95.9334 23.6877 95.9334 20.2686C95.9334 16.8495 94.2088 14.8222 90.8501 14.0052L87.2192 13.1278C85.8274 12.7949 84.8289 11.9477 84.8289 10.3138C84.8289 8.71013 85.8879 7.53007 88.3993 7.53007C89.6743 7.53007 90.7052 7.92511 91.4059 8.63598C92.1884 9.43003 93.0864 10.2835 94.2012 10.2835V10.2835C94.9392 10.2835 95.5143 9.62314 95.2887 8.92051C94.3949 6.13667 92.0622 4.32275 88.369 4.32275C84.6171 4.32275 81.5308 6.22899 81.5308 10.3138C81.5308 13.3396 83.1042 15.5786 85.8879 16.2443L89.6398 17.152C91.7579 17.6664 92.6354 18.6347 92.6354 20.2081C92.6354 21.842 91.2435 22.901 89.0649 22.901C87.3315 22.901 86.0116 22.266 85.2188 21.0784C84.5779 20.1185 83.6618 19.2398 82.5077 19.2398V19.2398C81.8029 19.2398 81.2402 19.8468 81.398 20.5336C82.1486 23.7998 84.684 26.1083 89.0044 26.1083Z"
    fill="url(#paint2_linear_1_774)" />
  <path
    d="M98.6774 18.6347C98.6774 23.2036 101.733 26.1083 106.272 26.1083C107.815 26.1083 109.177 25.7755 110.296 25.1703L110.538 25.4154C111.492 26.3847 113.051 26.4015 114.026 25.4529V25.4529C114.272 25.2137 114.276 24.8201 114.036 24.5755L112.596 23.1128C113.413 21.9025 113.867 20.3896 113.867 18.6347V11.7964C113.867 7.2275 110.811 4.32275 106.272 4.32275C101.733 4.32275 98.6774 7.2275 98.6774 11.7964V18.6347ZM106.386 20.2581C106.14 20.4974 106.135 20.8912 106.376 21.1358L107.876 22.6589C107.361 22.8102 106.787 22.901 106.272 22.901C104.154 22.901 101.915 21.5999 101.915 18.6347V11.7964C101.915 8.83116 104.154 7.53007 106.272 7.53007C108.39 7.53007 110.629 8.83116 110.629 11.7964V18.6347C110.629 19.4214 110.478 20.087 110.206 20.6317L109.874 20.2951C108.919 19.3261 107.361 19.3096 106.386 20.2581V20.2581Z"
    fill="url(#paint3_linear_1_774)" />
  <path
    d="M25.3599 4.40135C25.5686 4.61206 25.7774 4.84617 25.9861 5.08028C31.1584 10.9799 30.9496 19.9699 25.3831 25.5652L16.175 34.8595C15.9894 35.0468 15.6879 35.0468 15.5024 34.8595C15.0617 34.3913 14.6674 33.8763 14.2963 33.3612C14.2267 33.2676 14.1803 33.1739 14.1107 33.0803L14.0875 33.0569C13.2525 31.7692 12.5799 30.3177 12.232 28.9833C11.9769 27.9532 11.8377 26.9231 11.8145 25.8696C11.7681 22.4281 13.067 19.1973 15.4792 16.7626L19.3294 12.9465C19.4686 12.806 19.2598 12.5719 19.0975 12.7124L12.4871 18.6355C10.0749 21.0468 8.77608 24.301 8.82246 27.7425V27.9064C8.82246 28.2809 8.45136 28.5151 8.14984 28.3512C6.78138 27.6488 5.50571 26.7358 4.3692 25.5886C-1.45253 19.7358 -1.45253 10.2308 4.346 4.37794C10.1445 -1.4749 19.5613 -1.45149 25.3599 4.40135Z"
    fill="url(#paint4_angular_1_774)" />
  <path fill-rule="evenodd" clip-rule="evenodd"
    d="M10.1405 21.8945L5.15525 26.3258C6.0833 27.1349 7.08879 27.8063 8.15008 28.351C8.4516 28.5149 8.82271 28.2808 8.82271 27.9062V27.7423C8.79489 25.6786 9.25083 23.6822 10.1405 21.8945Z"
    fill="#00E0FF" />
  <defs>
    <linearGradient id="paint0_linear_1_774" x1="78.0382" y1="4.32275" x2="78.0382" y2="27.1673"
      gradientUnits="userSpaceOnUse">
      <stop stop-color="#00B2FF" />
      <stop offset="1" stop-color="#0085FF" />
    </linearGradient>
    <linearGradient id="paint1_linear_1_774" x1="78.0382" y1="4.32275" x2="78.0382" y2="27.1673"
      gradientUnits="userSpaceOnUse">
      <stop stop-color="#00B2FF" />
      <stop offset="1" stop-color="#0085FF" />
    </linearGradient>
    <linearGradient id="paint2_linear_1_774" x1="78.0382" y1="4.32275" x2="78.0382" y2="27.1673"
      gradientUnits="userSpaceOnUse">
      <stop stop-color="#00B2FF" />
      <stop offset="1" stop-color="#0085FF" />
    </linearGradient>
    <linearGradient id="paint3_linear_1_774" x1="78.0382" y1="4.32275" x2="78.0382" y2="27.1673"
      gradientUnits="userSpaceOnUse">
      <stop stop-color="#00B2FF" />
      <stop offset="1" stop-color="#0085FF" />
    </linearGradient>
    <radialGradient id="paint4_angular_1_774" cx="0" cy="0" r="1" gradientUnits="userSpaceOnUse"
      gradientTransform="translate(18.7436 13.125) rotate(133.689) scale(9.83173 10.089)">
      <stop stop-color="#00E0FF" />
      <stop offset="1" stop-color="#00A3FF" />
    </radialGradient>
  </defs>
</svg>